<mxfile host="app.diagrams.net" agent="Mozilla/5.0 (Windows NT 10.0; Win64; x64) AppleWebKit/537.36 (KHTML, like Gecko) Chrome/138.0.0.0 Safari/537.36 Edg/138.0.0.0" version="27.2.0">
  <diagram name="第 1 页" id="-sMJWK1Gfj_aqRHzmBqa">
    <mxGraphModel dx="2171" dy="1279" grid="0" gridSize="10" guides="1" tooltips="1" connect="1" arrows="1" fold="1" page="0" pageScale="1" pageWidth="827" pageHeight="1169" math="0" shadow="0">
      <root>
        <mxCell id="0" />
        <mxCell id="1" parent="0" />
        <mxCell id="xiAdM_oJinIrioVPchU1-78" style="rounded=0;orthogonalLoop=1;jettySize=auto;html=1;endArrow=none;endFill=0;" parent="1" source="jtSbeUK-r6gmMyREcFQK-5" target="xiAdM_oJinIrioVPchU1-40" edge="1">
          <mxGeometry relative="1" as="geometry" />
        </mxCell>
        <mxCell id="xiAdM_oJinIrioVPchU1-79" value="create a" style="edgeLabel;html=1;align=center;verticalAlign=middle;resizable=0;points=[];" parent="xiAdM_oJinIrioVPchU1-78" vertex="1" connectable="0">
          <mxGeometry x="-0.0337" relative="1" as="geometry">
            <mxPoint as="offset" />
          </mxGeometry>
        </mxCell>
        <mxCell id="jtSbeUK-r6gmMyREcFQK-5" value="RailwayAuthority" style="swimlane;fontStyle=1;align=center;verticalAlign=top;childLayout=stackLayout;horizontal=1;startSize=26;horizontalStack=0;resizeParent=1;resizeParentMax=0;resizeLast=0;collapsible=1;marginBottom=0;whiteSpace=wrap;html=1;" parent="1" vertex="1">
          <mxGeometry x="127" y="11" width="223" height="142" as="geometry">
            <mxRectangle x="584" y="500" width="105" height="26" as="alternateBounds" />
          </mxGeometry>
        </mxCell>
        <mxCell id="jtSbeUK-r6gmMyREcFQK-6" value="- authorityId: String&lt;div&gt;- department: String&lt;/div&gt;" style="text;strokeColor=none;fillColor=none;align=left;verticalAlign=top;spacingLeft=4;spacingRight=4;overflow=hidden;rotatable=0;points=[[0,0.5],[1,0.5]];portConstraint=eastwest;whiteSpace=wrap;html=1;" parent="jtSbeUK-r6gmMyREcFQK-5" vertex="1">
          <mxGeometry y="26" width="223" height="38" as="geometry" />
        </mxCell>
        <mxCell id="jtSbeUK-r6gmMyREcFQK-7" value="" style="line;strokeWidth=1;fillColor=none;align=left;verticalAlign=middle;spacingTop=-1;spacingLeft=3;spacingRight=3;rotatable=0;labelPosition=right;points=[];portConstraint=eastwest;strokeColor=inherit;" parent="jtSbeUK-r6gmMyREcFQK-5" vertex="1">
          <mxGeometry y="64" width="223" height="8" as="geometry" />
        </mxCell>
        <mxCell id="jtSbeUK-r6gmMyREcFQK-8" value="&lt;div&gt;+ review(notification: RiskNotification)&lt;br&gt;+ review(report: EmergencyReport)&lt;/div&gt;&lt;div&gt;+ requestHiddenInvestigation()&lt;/div&gt;" style="text;strokeColor=none;fillColor=none;align=left;verticalAlign=top;spacingLeft=4;spacingRight=4;overflow=hidden;rotatable=0;points=[[0,0.5],[1,0.5]];portConstraint=eastwest;whiteSpace=wrap;html=1;spacingTop=0;" parent="jtSbeUK-r6gmMyREcFQK-5" vertex="1">
          <mxGeometry y="72" width="223" height="70" as="geometry" />
        </mxCell>
        <mxCell id="xiAdM_oJinIrioVPchU1-72" style="rounded=0;orthogonalLoop=1;jettySize=auto;html=1;entryX=0.5;entryY=0;entryDx=0;entryDy=0;endArrow=none;endFill=0;" parent="1" source="jtSbeUK-r6gmMyREcFQK-14" target="jtSbeUK-r6gmMyREcFQK-18" edge="1">
          <mxGeometry relative="1" as="geometry" />
        </mxCell>
        <mxCell id="xiAdM_oJinIrioVPchU1-73" value="generates" style="edgeLabel;html=1;align=center;verticalAlign=middle;resizable=0;points=[];" parent="xiAdM_oJinIrioVPchU1-72" vertex="1" connectable="0">
          <mxGeometry x="-0.1511" y="2" relative="1" as="geometry">
            <mxPoint as="offset" />
          </mxGeometry>
        </mxCell>
        <mxCell id="jtSbeUK-r6gmMyREcFQK-14" value="EmergencyTask" style="swimlane;fontStyle=1;align=center;verticalAlign=top;childLayout=stackLayout;horizontal=1;startSize=26;horizontalStack=0;resizeParent=1;resizeParentMax=0;resizeLast=0;collapsible=1;marginBottom=0;whiteSpace=wrap;html=1;" parent="1" vertex="1">
          <mxGeometry x="-211" y="-395.5" width="200" height="156" as="geometry">
            <mxRectangle x="584" y="500" width="105" height="26" as="alternateBounds" />
          </mxGeometry>
        </mxCell>
        <mxCell id="jtSbeUK-r6gmMyREcFQK-15" value="&lt;div&gt;&lt;div&gt;- taskId: String&lt;/div&gt;&lt;/div&gt;&lt;div&gt;- description: String&lt;/div&gt;&lt;div&gt;- priority: int&lt;/div&gt;&lt;div&gt;- status: TaskStatus&lt;/div&gt;&lt;div&gt;- assignedTeam()&lt;/div&gt;" style="text;strokeColor=none;fillColor=none;align=left;verticalAlign=top;spacingLeft=4;spacingRight=4;overflow=hidden;rotatable=0;points=[[0,0.5],[1,0.5]];portConstraint=eastwest;whiteSpace=wrap;html=1;" parent="jtSbeUK-r6gmMyREcFQK-14" vertex="1">
          <mxGeometry y="26" width="200" height="83" as="geometry" />
        </mxCell>
        <mxCell id="jtSbeUK-r6gmMyREcFQK-16" value="" style="line;strokeWidth=1;fillColor=none;align=left;verticalAlign=middle;spacingTop=-1;spacingLeft=3;spacingRight=3;rotatable=0;labelPosition=right;points=[];portConstraint=eastwest;strokeColor=inherit;" parent="jtSbeUK-r6gmMyREcFQK-14" vertex="1">
          <mxGeometry y="109" width="200" height="8" as="geometry" />
        </mxCell>
        <mxCell id="jtSbeUK-r6gmMyREcFQK-17" value="+ assignToTeam()&lt;div&gt;+ updateStatus()&lt;/div&gt;" style="text;strokeColor=none;fillColor=none;align=left;verticalAlign=top;spacingLeft=4;spacingRight=4;overflow=hidden;rotatable=0;points=[[0,0.5],[1,0.5]];portConstraint=eastwest;whiteSpace=wrap;html=1;spacingTop=0;" parent="jtSbeUK-r6gmMyREcFQK-14" vertex="1">
          <mxGeometry y="117" width="200" height="39" as="geometry" />
        </mxCell>
        <mxCell id="xiAdM_oJinIrioVPchU1-74" style="rounded=0;orthogonalLoop=1;jettySize=auto;html=1;endArrow=none;endFill=0;" parent="1" source="jtSbeUK-r6gmMyREcFQK-18" target="jtSbeUK-r6gmMyREcFQK-5" edge="1">
          <mxGeometry relative="1" as="geometry" />
        </mxCell>
        <mxCell id="xiAdM_oJinIrioVPchU1-77" value="reviewed by" style="edgeLabel;html=1;align=center;verticalAlign=middle;resizable=0;points=[];" parent="xiAdM_oJinIrioVPchU1-74" vertex="1" connectable="0">
          <mxGeometry x="-0.0953" y="3" relative="1" as="geometry">
            <mxPoint as="offset" />
          </mxGeometry>
        </mxCell>
        <mxCell id="xiAdM_oJinIrioVPchU1-92" value="0..*" style="edgeLabel;html=1;align=center;verticalAlign=middle;resizable=0;points=[];" parent="xiAdM_oJinIrioVPchU1-74" vertex="1" connectable="0">
          <mxGeometry x="0.7352" y="-2" relative="1" as="geometry">
            <mxPoint x="3" y="-14" as="offset" />
          </mxGeometry>
        </mxCell>
        <mxCell id="xiAdM_oJinIrioVPchU1-80" style="rounded=0;orthogonalLoop=1;jettySize=auto;html=1;endArrow=none;endFill=0;dashed=1;startArrow=block;startFill=0;entryX=0.666;entryY=0.021;entryDx=0;entryDy=0;entryPerimeter=0;" parent="1" source="jtSbeUK-r6gmMyREcFQK-18" target="xiAdM_oJinIrioVPchU1-33" edge="1">
          <mxGeometry relative="1" as="geometry">
            <mxPoint x="-300.55384615384605" y="96.99999999999977" as="targetPoint" />
          </mxGeometry>
        </mxCell>
        <mxCell id="xiAdM_oJinIrioVPchU1-82" style="rounded=0;orthogonalLoop=1;jettySize=auto;html=1;dashed=1;endArrow=none;endFill=0;startArrow=block;startFill=0;" parent="1" source="jtSbeUK-r6gmMyREcFQK-18" target="xiAdM_oJinIrioVPchU1-30" edge="1">
          <mxGeometry relative="1" as="geometry">
            <mxPoint x="119" y="-71" as="targetPoint" />
          </mxGeometry>
        </mxCell>
        <mxCell id="jtSbeUK-r6gmMyREcFQK-18" value="EmergencyReport" style="swimlane;fontStyle=1;align=center;verticalAlign=top;childLayout=stackLayout;horizontal=1;startSize=26;horizontalStack=0;resizeParent=1;resizeParentMax=0;resizeLast=0;collapsible=1;marginBottom=0;whiteSpace=wrap;html=1;" parent="1" vertex="1">
          <mxGeometry x="-207.5" y="-99" width="193" height="170" as="geometry">
            <mxRectangle x="584" y="500" width="105" height="26" as="alternateBounds" />
          </mxGeometry>
        </mxCell>
        <mxCell id="jtSbeUK-r6gmMyREcFQK-19" value="&lt;div&gt;&lt;div&gt;- reportId: String&lt;/div&gt;&lt;/div&gt;&lt;div&gt;- taskId: String&lt;/div&gt;&lt;div&gt;&lt;span style=&quot;background-color: transparent; color: light-dark(rgb(0, 0, 0), rgb(255, 255, 255));&quot;&gt;- teamId: String&lt;/span&gt;&lt;/div&gt;&lt;div&gt;- result: String&lt;/div&gt;&lt;div&gt;- status: String&lt;span style=&quot;white-space: pre;&quot;&gt;&#x9;&lt;/span&gt;&lt;/div&gt;" style="text;strokeColor=none;fillColor=none;align=left;verticalAlign=top;spacingLeft=4;spacingRight=4;overflow=hidden;rotatable=0;points=[[0,0.5],[1,0.5]];portConstraint=eastwest;whiteSpace=wrap;html=1;" parent="jtSbeUK-r6gmMyREcFQK-18" vertex="1">
          <mxGeometry y="26" width="193" height="86" as="geometry" />
        </mxCell>
        <mxCell id="jtSbeUK-r6gmMyREcFQK-20" value="" style="line;strokeWidth=1;fillColor=none;align=left;verticalAlign=middle;spacingTop=-1;spacingLeft=3;spacingRight=3;rotatable=0;labelPosition=right;points=[];portConstraint=eastwest;strokeColor=inherit;" parent="jtSbeUK-r6gmMyREcFQK-18" vertex="1">
          <mxGeometry y="112" width="193" height="8" as="geometry" />
        </mxCell>
        <mxCell id="jtSbeUK-r6gmMyREcFQK-21" value="+ submitReport()&lt;div&gt;+ updateStatus(status)&lt;/div&gt;&lt;div&gt;+ record()&lt;/div&gt;" style="text;strokeColor=none;fillColor=none;align=left;verticalAlign=top;spacingLeft=4;spacingRight=4;overflow=hidden;rotatable=0;points=[[0,0.5],[1,0.5]];portConstraint=eastwest;whiteSpace=wrap;html=1;spacingTop=0;" parent="jtSbeUK-r6gmMyREcFQK-18" vertex="1">
          <mxGeometry y="120" width="193" height="50" as="geometry" />
        </mxCell>
        <mxCell id="xiAdM_oJinIrioVPchU1-75" style="rounded=0;orthogonalLoop=1;jettySize=auto;html=1;endArrow=none;endFill=0;" parent="1" source="jtSbeUK-r6gmMyREcFQK-26" target="jtSbeUK-r6gmMyREcFQK-5" edge="1">
          <mxGeometry relative="1" as="geometry" />
        </mxCell>
        <mxCell id="xiAdM_oJinIrioVPchU1-76" value="reviewed by" style="edgeLabel;html=1;align=center;verticalAlign=middle;resizable=0;points=[];" parent="xiAdM_oJinIrioVPchU1-75" vertex="1" connectable="0">
          <mxGeometry x="-0.0131" y="-1" relative="1" as="geometry">
            <mxPoint as="offset" />
          </mxGeometry>
        </mxCell>
        <mxCell id="xiAdM_oJinIrioVPchU1-83" style="rounded=0;orthogonalLoop=1;jettySize=auto;html=1;dashed=1;endArrow=none;endFill=0;startArrow=block;startFill=0;" parent="1" source="jtSbeUK-r6gmMyREcFQK-26" target="xiAdM_oJinIrioVPchU1-30" edge="1">
          <mxGeometry relative="1" as="geometry">
            <mxPoint x="297" y="-71" as="targetPoint" />
          </mxGeometry>
        </mxCell>
        <mxCell id="jtSbeUK-r6gmMyREcFQK-26" value="RiskNotification" style="swimlane;fontStyle=1;align=center;verticalAlign=top;childLayout=stackLayout;horizontal=1;startSize=26;horizontalStack=0;resizeParent=1;resizeParentMax=0;resizeLast=0;collapsible=1;marginBottom=0;whiteSpace=wrap;html=1;" parent="1" vertex="1">
          <mxGeometry x="470" y="-34" width="200" height="140" as="geometry">
            <mxRectangle x="584" y="500" width="105" height="26" as="alternateBounds" />
          </mxGeometry>
        </mxCell>
        <mxCell id="jtSbeUK-r6gmMyREcFQK-27" value="&lt;div&gt;&lt;div&gt;- notificationId: String&lt;/div&gt;&lt;/div&gt;&lt;div&gt;- riskLevel: String&lt;/div&gt;&lt;div&gt;- description: String&lt;/div&gt;&lt;div&gt;- status: String&lt;/div&gt;" style="text;strokeColor=none;fillColor=none;align=left;verticalAlign=top;spacingLeft=4;spacingRight=4;overflow=hidden;rotatable=0;points=[[0,0.5],[1,0.5]];portConstraint=eastwest;whiteSpace=wrap;html=1;" parent="jtSbeUK-r6gmMyREcFQK-26" vertex="1">
          <mxGeometry y="26" width="200" height="67" as="geometry" />
        </mxCell>
        <mxCell id="jtSbeUK-r6gmMyREcFQK-28" value="" style="line;strokeWidth=1;fillColor=none;align=left;verticalAlign=middle;spacingTop=-1;spacingLeft=3;spacingRight=3;rotatable=0;labelPosition=right;points=[];portConstraint=eastwest;strokeColor=inherit;" parent="jtSbeUK-r6gmMyREcFQK-26" vertex="1">
          <mxGeometry y="93" width="200" height="8" as="geometry" />
        </mxCell>
        <mxCell id="jtSbeUK-r6gmMyREcFQK-29" value="+ submitForReview()&lt;div&gt;+ updateStatus()&lt;/div&gt;" style="text;strokeColor=none;fillColor=none;align=left;verticalAlign=top;spacingLeft=4;spacingRight=4;overflow=hidden;rotatable=0;points=[[0,0.5],[1,0.5]];portConstraint=eastwest;whiteSpace=wrap;html=1;spacingTop=0;" parent="jtSbeUK-r6gmMyREcFQK-26" vertex="1">
          <mxGeometry y="101" width="200" height="39" as="geometry" />
        </mxCell>
        <mxCell id="xiAdM_oJinIrioVPchU1-1" value="&lt;div&gt;&lt;span style=&quot;background-color: transparent; color: light-dark(rgb(0, 0, 0), rgb(255, 255, 255));&quot;&gt;Reviewable&lt;/span&gt;&lt;/div&gt;" style="swimlane;fontStyle=1;align=center;verticalAlign=top;childLayout=stackLayout;horizontal=1;startSize=27;horizontalStack=0;resizeParent=1;resizeParentMax=0;resizeLast=0;collapsible=1;marginBottom=0;whiteSpace=wrap;html=1;" parent="1" vertex="1">
          <mxGeometry x="514" y="-205" width="200" height="35" as="geometry">
            <mxRectangle x="584" y="500" width="105" height="26" as="alternateBounds" />
          </mxGeometry>
        </mxCell>
        <mxCell id="xiAdM_oJinIrioVPchU1-3" value="" style="line;strokeWidth=1;fillColor=none;align=left;verticalAlign=middle;spacingTop=-1;spacingLeft=3;spacingRight=3;rotatable=0;labelPosition=right;points=[];portConstraint=eastwest;strokeColor=inherit;" parent="xiAdM_oJinIrioVPchU1-1" vertex="1">
          <mxGeometry y="27" width="200" height="8" as="geometry" />
        </mxCell>
        <mxCell id="xiAdM_oJinIrioVPchU1-5" value="&lt;div&gt;&amp;lt;&amp;lt;interface&amp;gt;&amp;gt;&lt;/div&gt;Executable" style="swimlane;fontStyle=1;align=center;verticalAlign=top;childLayout=stackLayout;horizontal=1;startSize=42;horizontalStack=0;resizeParent=1;resizeParentMax=0;resizeLast=0;collapsible=1;marginBottom=0;whiteSpace=wrap;html=1;" parent="1" vertex="1">
          <mxGeometry x="375" y="1801" width="270" height="89" as="geometry">
            <mxRectangle x="584" y="500" width="105" height="26" as="alternateBounds" />
          </mxGeometry>
        </mxCell>
        <mxCell id="xiAdM_oJinIrioVPchU1-6" value="" style="line;strokeWidth=1;fillColor=none;align=left;verticalAlign=middle;spacingTop=-1;spacingLeft=3;spacingRight=3;rotatable=0;labelPosition=right;points=[];portConstraint=eastwest;strokeColor=inherit;" parent="xiAdM_oJinIrioVPchU1-5" vertex="1">
          <mxGeometry y="42" width="270" height="8" as="geometry" />
        </mxCell>
        <mxCell id="xiAdM_oJinIrioVPchU1-7" value="&lt;div&gt;&amp;nbsp; + execute()&lt;/div&gt;&lt;div&gt;&amp;nbsp; + reportCompletion()&lt;/div&gt;" style="text;strokeColor=none;fillColor=none;align=left;verticalAlign=top;spacingLeft=4;spacingRight=4;overflow=hidden;rotatable=0;points=[[0,0.5],[1,0.5]];portConstraint=eastwest;whiteSpace=wrap;html=1;spacingTop=0;" parent="xiAdM_oJinIrioVPchU1-5" vertex="1">
          <mxGeometry y="50" width="270" height="39" as="geometry" />
        </mxCell>
        <mxCell id="xiAdM_oJinIrioVPchU1-8" value="ReportController" style="swimlane;fontStyle=1;align=center;verticalAlign=top;childLayout=stackLayout;horizontal=1;startSize=27;horizontalStack=0;resizeParent=1;resizeParentMax=0;resizeLast=0;collapsible=1;marginBottom=0;whiteSpace=wrap;html=1;" parent="1" vertex="1">
          <mxGeometry x="692" y="1176" width="200" height="78" as="geometry">
            <mxRectangle x="584" y="500" width="105" height="26" as="alternateBounds" />
          </mxGeometry>
        </mxCell>
        <mxCell id="xiAdM_oJinIrioVPchU1-9" value="" style="line;strokeWidth=1;fillColor=none;align=left;verticalAlign=middle;spacingTop=-1;spacingLeft=3;spacingRight=3;rotatable=0;labelPosition=right;points=[];portConstraint=eastwest;strokeColor=inherit;" parent="xiAdM_oJinIrioVPchU1-8" vertex="1">
          <mxGeometry y="27" width="200" height="8" as="geometry" />
        </mxCell>
        <mxCell id="xiAdM_oJinIrioVPchU1-10" value="&lt;div&gt;&lt;div&gt;&amp;nbsp; + submitReport(report)&lt;/div&gt;&lt;div&gt;&amp;nbsp; + evaluateReport(report)&lt;/div&gt;&lt;/div&gt;" style="text;strokeColor=none;fillColor=none;align=left;verticalAlign=top;spacingLeft=4;spacingRight=4;overflow=hidden;rotatable=0;points=[[0,0.5],[1,0.5]];portConstraint=eastwest;whiteSpace=wrap;html=1;spacingTop=0;" parent="xiAdM_oJinIrioVPchU1-8" vertex="1">
          <mxGeometry y="35" width="200" height="43" as="geometry" />
        </mxCell>
        <mxCell id="xiAdM_oJinIrioVPchU1-59" style="rounded=0;orthogonalLoop=1;jettySize=auto;html=1;endArrow=open;endFill=0;dashed=1;" parent="1" source="xiAdM_oJinIrioVPchU1-11" target="xiAdM_oJinIrioVPchU1-15" edge="1">
          <mxGeometry relative="1" as="geometry" />
        </mxCell>
        <mxCell id="xiAdM_oJinIrioVPchU1-11" value="EmergencyController" style="swimlane;fontStyle=1;align=center;verticalAlign=top;childLayout=stackLayout;horizontal=1;startSize=27;horizontalStack=0;resizeParent=1;resizeParentMax=0;resizeLast=0;collapsible=1;marginBottom=0;whiteSpace=wrap;html=1;" parent="1" vertex="1">
          <mxGeometry x="450" y="-368" width="224" height="101" as="geometry">
            <mxRectangle x="584" y="500" width="105" height="26" as="alternateBounds" />
          </mxGeometry>
        </mxCell>
        <mxCell id="xiAdM_oJinIrioVPchU1-12" value="" style="line;strokeWidth=1;fillColor=none;align=left;verticalAlign=middle;spacingTop=-1;spacingLeft=3;spacingRight=3;rotatable=0;labelPosition=right;points=[];portConstraint=eastwest;strokeColor=inherit;" parent="xiAdM_oJinIrioVPchU1-11" vertex="1">
          <mxGeometry y="27" width="224" height="8" as="geometry" />
        </mxCell>
        <mxCell id="xiAdM_oJinIrioVPchU1-13" value="&lt;div&gt;&amp;nbsp; + autoStartResponse()&lt;/div&gt;&lt;div&gt;&amp;nbsp; + generateRiskNotification()&lt;/div&gt;&lt;div&gt;&amp;nbsp; + generateTaskList()&lt;/div&gt;&lt;div&gt;&amp;nbsp; + notifyTrainSuspension()&lt;/div&gt;" style="text;strokeColor=none;fillColor=none;align=left;verticalAlign=top;spacingLeft=4;spacingRight=4;overflow=hidden;rotatable=0;points=[[0,0.5],[1,0.5]];portConstraint=eastwest;whiteSpace=wrap;html=1;spacingTop=0;" parent="xiAdM_oJinIrioVPchU1-11" vertex="1">
          <mxGeometry y="35" width="224" height="66" as="geometry" />
        </mxCell>
        <mxCell id="xiAdM_oJinIrioVPchU1-65" style="rounded=0;orthogonalLoop=1;jettySize=auto;html=1;endArrow=none;endFill=0;" parent="1" source="xiAdM_oJinIrioVPchU1-15" target="jtSbeUK-r6gmMyREcFQK-14" edge="1">
          <mxGeometry relative="1" as="geometry" />
        </mxCell>
        <mxCell id="xiAdM_oJinIrioVPchU1-66" value="executes" style="edgeLabel;html=1;align=center;verticalAlign=middle;resizable=0;points=[];" parent="xiAdM_oJinIrioVPchU1-65" vertex="1" connectable="0">
          <mxGeometry x="0.2442" y="-4" relative="1" as="geometry">
            <mxPoint x="14" y="-3" as="offset" />
          </mxGeometry>
        </mxCell>
        <mxCell id="xiAdM_oJinIrioVPchU1-15" value="EmergencyTeam" style="swimlane;fontStyle=1;align=center;verticalAlign=top;childLayout=stackLayout;horizontal=1;startSize=26;horizontalStack=0;resizeParent=1;resizeParentMax=0;resizeLast=0;collapsible=1;marginBottom=0;whiteSpace=wrap;html=1;" parent="1" vertex="1">
          <mxGeometry x="122" y="-381" width="193" height="127" as="geometry">
            <mxRectangle x="584" y="500" width="105" height="26" as="alternateBounds" />
          </mxGeometry>
        </mxCell>
        <mxCell id="xiAdM_oJinIrioVPchU1-16" value="&lt;div&gt;&lt;div&gt;- teamId: String&lt;/div&gt;&lt;/div&gt;&lt;div&gt;- teamName: String&lt;/div&gt;&lt;div&gt;&lt;br&gt;&lt;/div&gt;" style="text;strokeColor=none;fillColor=none;align=left;verticalAlign=top;spacingLeft=4;spacingRight=4;overflow=hidden;rotatable=0;points=[[0,0.5],[1,0.5]];portConstraint=eastwest;whiteSpace=wrap;html=1;" parent="xiAdM_oJinIrioVPchU1-15" vertex="1">
          <mxGeometry y="26" width="193" height="42" as="geometry" />
        </mxCell>
        <mxCell id="xiAdM_oJinIrioVPchU1-17" value="" style="line;strokeWidth=1;fillColor=none;align=left;verticalAlign=middle;spacingTop=-1;spacingLeft=3;spacingRight=3;rotatable=0;labelPosition=right;points=[];portConstraint=eastwest;strokeColor=inherit;" parent="xiAdM_oJinIrioVPchU1-15" vertex="1">
          <mxGeometry y="68" width="193" height="8" as="geometry" />
        </mxCell>
        <mxCell id="xiAdM_oJinIrioVPchU1-18" value="+ receiveTask(task)&lt;div&gt;+ executeTask(taskId)&lt;/div&gt;&lt;div&gt;+ reportCompletion(taskId)&lt;/div&gt;" style="text;strokeColor=none;fillColor=none;align=left;verticalAlign=top;spacingLeft=4;spacingRight=4;overflow=hidden;rotatable=0;points=[[0,0.5],[1,0.5]];portConstraint=eastwest;whiteSpace=wrap;html=1;spacingTop=0;" parent="xiAdM_oJinIrioVPchU1-15" vertex="1">
          <mxGeometry y="76" width="193" height="51" as="geometry" />
        </mxCell>
        <mxCell id="xiAdM_oJinIrioVPchU1-24" value="AlertController" style="swimlane;fontStyle=1;align=center;verticalAlign=top;childLayout=stackLayout;horizontal=1;startSize=27;horizontalStack=0;resizeParent=1;resizeParentMax=0;resizeLast=0;collapsible=1;marginBottom=0;whiteSpace=wrap;html=1;" parent="1" vertex="1">
          <mxGeometry x="365" y="1655" width="224" height="74" as="geometry">
            <mxRectangle x="584" y="500" width="105" height="26" as="alternateBounds" />
          </mxGeometry>
        </mxCell>
        <mxCell id="xiAdM_oJinIrioVPchU1-25" value="" style="line;strokeWidth=1;fillColor=none;align=left;verticalAlign=middle;spacingTop=-1;spacingLeft=3;spacingRight=3;rotatable=0;labelPosition=right;points=[];portConstraint=eastwest;strokeColor=inherit;" parent="xiAdM_oJinIrioVPchU1-24" vertex="1">
          <mxGeometry y="27" width="224" height="8" as="geometry" />
        </mxCell>
        <mxCell id="xiAdM_oJinIrioVPchU1-26" value="&lt;div&gt;&amp;nbsp; + sendAlarmLiftNotice()&lt;/div&gt;&lt;div&gt;&amp;nbsp; + checkTaskEmpty()&lt;/div&gt;" style="text;strokeColor=none;fillColor=none;align=left;verticalAlign=top;spacingLeft=4;spacingRight=4;overflow=hidden;rotatable=0;points=[[0,0.5],[1,0.5]];portConstraint=eastwest;whiteSpace=wrap;html=1;spacingTop=0;" parent="xiAdM_oJinIrioVPchU1-24" vertex="1">
          <mxGeometry y="35" width="224" height="39" as="geometry" />
        </mxCell>
        <mxCell id="xiAdM_oJinIrioVPchU1-84" style="rounded=0;orthogonalLoop=1;jettySize=auto;html=1;endArrow=none;endFill=0;startArrow=block;startFill=0;dashed=1;" parent="1" source="xiAdM_oJinIrioVPchU1-30" target="xiAdM_oJinIrioVPchU1-1" edge="1">
          <mxGeometry relative="1" as="geometry" />
        </mxCell>
        <mxCell id="xiAdM_oJinIrioVPchU1-30" value="ReviewController" style="swimlane;fontStyle=1;align=center;verticalAlign=top;childLayout=stackLayout;horizontal=1;startSize=27;horizontalStack=0;resizeParent=1;resizeParentMax=0;resizeLast=0;collapsible=1;marginBottom=0;whiteSpace=wrap;html=1;" parent="1" vertex="1">
          <mxGeometry x="122" y="-190" width="224" height="76" as="geometry">
            <mxRectangle x="584" y="500" width="105" height="26" as="alternateBounds" />
          </mxGeometry>
        </mxCell>
        <mxCell id="xiAdM_oJinIrioVPchU1-31" value="" style="line;strokeWidth=1;fillColor=none;align=left;verticalAlign=middle;spacingTop=-1;spacingLeft=3;spacingRight=3;rotatable=0;labelPosition=right;points=[];portConstraint=eastwest;strokeColor=inherit;" parent="xiAdM_oJinIrioVPchU1-30" vertex="1">
          <mxGeometry y="27" width="224" height="8" as="geometry" />
        </mxCell>
        <mxCell id="xiAdM_oJinIrioVPchU1-32" value="&lt;div&gt;&lt;div&gt;&amp;nbsp; + submitForReview()&lt;/div&gt;&lt;div&gt;&amp;nbsp; + getReviewStatus()&lt;/div&gt;&lt;/div&gt;" style="text;strokeColor=none;fillColor=none;align=left;verticalAlign=top;spacingLeft=4;spacingRight=4;overflow=hidden;rotatable=0;points=[[0,0.5],[1,0.5]];portConstraint=eastwest;whiteSpace=wrap;html=1;spacingTop=0;" parent="xiAdM_oJinIrioVPchU1-30" vertex="1">
          <mxGeometry y="35" width="224" height="41" as="geometry" />
        </mxCell>
        <mxCell id="xiAdM_oJinIrioVPchU1-33" value="StorableController" style="swimlane;fontStyle=1;align=center;verticalAlign=top;childLayout=stackLayout;horizontal=1;startSize=27;horizontalStack=0;resizeParent=1;resizeParentMax=0;resizeLast=0;collapsible=1;marginBottom=0;whiteSpace=wrap;html=1;" parent="1" vertex="1">
          <mxGeometry x="-431" y="106" width="200" height="61" as="geometry">
            <mxRectangle x="584" y="500" width="105" height="26" as="alternateBounds" />
          </mxGeometry>
        </mxCell>
        <mxCell id="xiAdM_oJinIrioVPchU1-34" value="" style="line;strokeWidth=1;fillColor=none;align=left;verticalAlign=middle;spacingTop=-1;spacingLeft=3;spacingRight=3;rotatable=0;labelPosition=right;points=[];portConstraint=eastwest;strokeColor=inherit;" parent="xiAdM_oJinIrioVPchU1-33" vertex="1">
          <mxGeometry y="27" width="200" height="8" as="geometry" />
        </mxCell>
        <mxCell id="xiAdM_oJinIrioVPchU1-35" value="&lt;div&gt;+ record()&lt;/div&gt;" style="text;strokeColor=none;fillColor=none;align=left;verticalAlign=top;spacingLeft=4;spacingRight=4;overflow=hidden;rotatable=0;points=[[0,0.5],[1,0.5]];portConstraint=eastwest;whiteSpace=wrap;html=1;spacingTop=0;" parent="xiAdM_oJinIrioVPchU1-33" vertex="1">
          <mxGeometry y="35" width="200" height="26" as="geometry" />
        </mxCell>
        <mxCell id="xiAdM_oJinIrioVPchU1-36" value="TrainOperationStatus" style="swimlane;fontStyle=1;align=center;verticalAlign=top;childLayout=stackLayout;horizontal=1;startSize=26;horizontalStack=0;resizeParent=1;resizeParentMax=0;resizeLast=0;collapsible=1;marginBottom=0;whiteSpace=wrap;html=1;" parent="1" vertex="1">
          <mxGeometry x="445" y="1490" width="200" height="127" as="geometry">
            <mxRectangle x="584" y="500" width="105" height="26" as="alternateBounds" />
          </mxGeometry>
        </mxCell>
        <mxCell id="xiAdM_oJinIrioVPchU1-37" value="&lt;div&gt;&lt;div&gt;- trainId: String&lt;/div&gt;&lt;/div&gt;&lt;div&gt;- suspendFlag: String&lt;/div&gt;&lt;div&gt;- reason: String&lt;/div&gt;&lt;div&gt;&lt;br&gt;&lt;/div&gt;" style="text;strokeColor=none;fillColor=none;align=left;verticalAlign=top;spacingLeft=4;spacingRight=4;overflow=hidden;rotatable=0;points=[[0,0.5],[1,0.5]];portConstraint=eastwest;whiteSpace=wrap;html=1;" parent="xiAdM_oJinIrioVPchU1-36" vertex="1">
          <mxGeometry y="26" width="200" height="54" as="geometry" />
        </mxCell>
        <mxCell id="xiAdM_oJinIrioVPchU1-38" value="" style="line;strokeWidth=1;fillColor=none;align=left;verticalAlign=middle;spacingTop=-1;spacingLeft=3;spacingRight=3;rotatable=0;labelPosition=right;points=[];portConstraint=eastwest;strokeColor=inherit;" parent="xiAdM_oJinIrioVPchU1-36" vertex="1">
          <mxGeometry y="80" width="200" height="8" as="geometry" />
        </mxCell>
        <mxCell id="xiAdM_oJinIrioVPchU1-39" value="+ suspend()&lt;div&gt;+ resume()&lt;/div&gt;" style="text;strokeColor=none;fillColor=none;align=left;verticalAlign=top;spacingLeft=4;spacingRight=4;overflow=hidden;rotatable=0;points=[[0,0.5],[1,0.5]];portConstraint=eastwest;whiteSpace=wrap;html=1;spacingTop=0;" parent="xiAdM_oJinIrioVPchU1-36" vertex="1">
          <mxGeometry y="88" width="200" height="39" as="geometry" />
        </mxCell>
        <mxCell id="xiAdM_oJinIrioVPchU1-81" style="rounded=0;orthogonalLoop=1;jettySize=auto;html=1;dashed=1;endArrow=none;endFill=0;startArrow=block;startFill=0;" parent="1" source="xiAdM_oJinIrioVPchU1-40" target="xiAdM_oJinIrioVPchU1-33" edge="1">
          <mxGeometry relative="1" as="geometry">
            <mxPoint x="-288.9999999999998" y="192.81239804241432" as="targetPoint" />
          </mxGeometry>
        </mxCell>
        <mxCell id="xiAdM_oJinIrioVPchU1-40" value="AuditRecord" style="swimlane;fontStyle=1;align=center;verticalAlign=top;childLayout=stackLayout;horizontal=1;startSize=26;horizontalStack=0;resizeParent=1;resizeParentMax=0;resizeLast=0;collapsible=1;marginBottom=0;whiteSpace=wrap;html=1;" parent="1" vertex="1">
          <mxGeometry x="-182" y="215" width="200" height="140" as="geometry">
            <mxRectangle x="584" y="500" width="105" height="26" as="alternateBounds" />
          </mxGeometry>
        </mxCell>
        <mxCell id="xiAdM_oJinIrioVPchU1-41" value="&lt;div&gt;&lt;div&gt;- auditId: String&lt;/div&gt;&lt;/div&gt;&lt;div&gt;- result: String&lt;/div&gt;&lt;div&gt;- comment: String&lt;/div&gt;&lt;div&gt;&lt;br&gt;&lt;/div&gt;" style="text;strokeColor=none;fillColor=none;align=left;verticalAlign=top;spacingLeft=4;spacingRight=4;overflow=hidden;rotatable=0;points=[[0,0.5],[1,0.5]];portConstraint=eastwest;whiteSpace=wrap;html=1;" parent="xiAdM_oJinIrioVPchU1-40" vertex="1">
          <mxGeometry y="26" width="200" height="54" as="geometry" />
        </mxCell>
        <mxCell id="xiAdM_oJinIrioVPchU1-42" value="" style="line;strokeWidth=1;fillColor=none;align=left;verticalAlign=middle;spacingTop=-1;spacingLeft=3;spacingRight=3;rotatable=0;labelPosition=right;points=[];portConstraint=eastwest;strokeColor=inherit;" parent="xiAdM_oJinIrioVPchU1-40" vertex="1">
          <mxGeometry y="80" width="200" height="8" as="geometry" />
        </mxCell>
        <mxCell id="xiAdM_oJinIrioVPchU1-43" value="+ submit()&lt;div&gt;+ getResult()&lt;/div&gt;&lt;div&gt;+ recorf()&lt;/div&gt;" style="text;strokeColor=none;fillColor=none;align=left;verticalAlign=top;spacingLeft=4;spacingRight=4;overflow=hidden;rotatable=0;points=[[0,0.5],[1,0.5]];portConstraint=eastwest;whiteSpace=wrap;html=1;spacingTop=0;" parent="xiAdM_oJinIrioVPchU1-40" vertex="1">
          <mxGeometry y="88" width="200" height="52" as="geometry" />
        </mxCell>
        <mxCell id="xiAdM_oJinIrioVPchU1-44" value="&lt;div&gt;&amp;lt;&amp;lt;interface&amp;gt;&amp;gt;&lt;/div&gt;Reviewer" style="swimlane;fontStyle=1;align=center;verticalAlign=top;childLayout=stackLayout;horizontal=1;startSize=42;horizontalStack=0;resizeParent=1;resizeParentMax=0;resizeLast=0;collapsible=1;marginBottom=0;whiteSpace=wrap;html=1;" parent="1" vertex="1">
          <mxGeometry x="863" y="1335" width="270" height="103" as="geometry">
            <mxRectangle x="584" y="500" width="105" height="26" as="alternateBounds" />
          </mxGeometry>
        </mxCell>
        <mxCell id="xiAdM_oJinIrioVPchU1-45" value="" style="line;strokeWidth=1;fillColor=none;align=left;verticalAlign=middle;spacingTop=-1;spacingLeft=3;spacingRight=3;rotatable=0;labelPosition=right;points=[];portConstraint=eastwest;strokeColor=inherit;" parent="xiAdM_oJinIrioVPchU1-44" vertex="1">
          <mxGeometry y="42" width="270" height="8" as="geometry" />
        </mxCell>
        <mxCell id="xiAdM_oJinIrioVPchU1-46" value="&lt;div&gt;+ review(notification: RiskNotification)&lt;/div&gt;&lt;div&gt;+ review(report: EmergencyReport)&lt;/div&gt;" style="text;strokeColor=none;fillColor=none;align=left;verticalAlign=top;spacingLeft=4;spacingRight=4;overflow=hidden;rotatable=0;points=[[0,0.5],[1,0.5]];portConstraint=eastwest;whiteSpace=wrap;html=1;spacingTop=0;" parent="xiAdM_oJinIrioVPchU1-44" vertex="1">
          <mxGeometry y="50" width="270" height="53" as="geometry" />
        </mxCell>
        <UserObject label="" plantUmlData="{&#xa;  &quot;data&quot;: &quot;@startuml Railway Emergency Response System - Simplified\n\n&#39; Style settings\nskinparam class {\n  BackgroundColor white\n  ArrowColor black\n  BorderColor black\n}\nskinparam classAttributeIconSize 0\nskinparam stereotypeCBackgroundColor white\nhide circle\nhide empty methods\nhide empty fields\n\n&#39; Core controller class\nclass EmergencyController {\n  + autoStartResponse()\n  + generateRiskNotification()\n  + generateTaskList()\n  + notifyTrainSuspension()\n}\n\n&#39; Team class\nclass EmergencyTeam {\n  - teamId: String\n  - teamName: String\n  ..\n  + receiveTask(task)\n  + executeTask(taskId)\n  + reportCompletion(taskId)\n}\n\n&#39; Review class\nclass ReviewController {\n  + submitForReview()\n}\n\n&#39; Task class\nclass EmergencyTask {\n  - taskId: String\n  - description: String\n  - priority: int\n  - status: TaskStatus\n  - assignedTeam()\n  ..\n  + assignToTeam()\n  + updateStatus()\n}\n\n&#39; Report class\nclass EmergencyReport {\n  - reportId: String\n  - taskId: String\n  - teamId: String\n  - result: String\n  - status: String\n  ..\n  + submitReport()\n  + updateStatus(status)\n  + record()\n}\n\n&#39; Notification class\nclass RiskNotification {\n  - notificationId: String\n  - riskLevel: String\n  - description: String\n  - status: String\n  ..\n  + submitForReview()\n  + updateStatus()\n  + getReviewStatus()\n}\n\n&#39; Authority class\nclass RailwayAuthority {\n  - authorityId: String\n  - department: String\n  ..\n  + review(notification: RiskNotification)\n  + review(report: EmergencyReport)\n  + requestHiddenInvestigation()\n}\n\n&#39; Audit class\nclass AuditRecord {\n  - auditId: String\n  - result: String\n  - comment: String\n  ..\n  + submit()\n  + getResult()\n  + record()\n}\n\n&#39; Simple interfaces\ninterface \&quot;&lt;&lt;interface&gt;&gt;\\nReviewable\&quot; as Reviewable {\n  + submitForReview()\n  + getReviewStatus()\n}\n\ninterface \&quot;&lt;&lt;interface&gt;&gt;\\nStorable\&quot; as Storable {\n  + record()\n}\n\n&#39; Relationships - with complete interface connections\nEmergencyController -- EmergencyTeam : dispatchTask()\nEmergencyTeam -- EmergencyTask : executes &gt;\nEmergencyTask -- EmergencyReport : generates &gt;\n\nRiskNotification ..|&gt; Reviewable\nEmergencyReport ..|&gt; Reviewable\nEmergencyReport ..|&gt; Storable\nAuditRecord ..|&gt; Storable\n\nRiskNotification -- RailwayAuthority : reviewed by &gt;\nEmergencyReport -- RailwayAuthority : reviewed by &gt;\nRailwayAuthority -- AuditRecord : creates &gt;\nReviewController -- Reviewable : manages &gt;\n\n@enduml\n&quot;,&#xa;  &quot;format&quot;: &quot;svg&quot;&#xa;}" id="xiAdM_oJinIrioVPchU1-64">
          <mxCell style="shape=image;noLabel=1;verticalAlign=top;aspect=fixed;imageAspect=0;image=data:image/svg+xml,PHN2ZyB4bWxucz0iaHR0cDovL3d3dy53My5vcmcvMjAwMC9zdmciIHhtbG5zOnhsaW5rPSJodHRwOi8vd3d3LnczLm9yZy8xOTk5L3hsaW5rIiBjb250ZW50U3R5bGVUeXBlPSJ0ZXh0L2NzcyIgZGF0YS1kaWFncmFtLXR5cGU9IkNMQVNTIiBoZWlnaHQ9IjEyNzVweCIgcHJlc2VydmVBc3BlY3RSYXRpbz0ibm9uZSIgc3R5bGU9IndpZHRoOjU4MnB4O2hlaWdodDoxMjc1cHg7YmFja2dyb3VuZDojRkZGRkZGOyIgdmVyc2lvbj0iMS4xIiB2aWV3Qm94PSIwIDAgNTgyIDEyNzUiIHdpZHRoPSI1ODJweCIgem9vbUFuZFBhbj0ibWFnbmlmeSI+PGRlZnMvPjxnPjwhLS1jbGFzcyBFbWVyZ2VuY3lDb250cm9sbGVyLS0+PGcgY2xhc3M9ImVudGl0eSIgZGF0YS1lbnRpdHk9IkVtZXJnZW5jeUNvbnRyb2xsZXIiIGRhdGEtc291cmNlLWxpbmU9IjE0IiBkYXRhLXVpZD0iZW50MDAwMiIgaWQ9ImVudGl0eV9FbWVyZ2VuY3lDb250cm9sbGVyIj48cmVjdCBmaWxsPSIjRkZGRkZGIiBoZWlnaHQ9IjkyLjkyMTkiIHJ4PSIyLjUiIHJ5PSIyLjUiIHN0eWxlPSJzdHJva2U6IzAwMDAwMDtzdHJva2Utd2lkdGg6MC41OyIgd2lkdGg9IjIwMSIgeD0iMTQiIHk9IjciLz48dGV4dCBmaWxsPSIjMDAwMDAwIiBmb250LWZhbWlseT0ic2Fucy1zZXJpZiIgZm9udC1zaXplPSIxNCIgbGVuZ3RoQWRqdXN0PSJzcGFjaW5nIiB0ZXh0TGVuZ3RoPSIxMzMiIHg9IjQ4IiB5PSIyNS4yMzQ0Ij5FbWVyZ2VuY3lDb250cm9sbGVyPC90ZXh0PjxsaW5lIHN0eWxlPSJzdHJva2U6IzAwMDAwMDtzdHJva2Utd2lkdGg6MC41OyIgeDE9IjE1IiB4Mj0iMjE0IiB5MT0iMzEuOTg0NCIgeTI9IjMxLjk4NDQiLz48dGV4dCBmaWxsPSIjMDAwMDAwIiBmb250LWZhbWlseT0ic2Fucy1zZXJpZiIgZm9udC1zaXplPSIxNCIgbGVuZ3RoQWRqdXN0PSJzcGFjaW5nIiB0ZXh0TGVuZ3RoPSIxNDAiIHg9IjIwIiB5PSI0OS4yMTg4Ij4rYXV0b1N0YXJ0UmVzcG9uc2UoKTwvdGV4dD48dGV4dCBmaWxsPSIjMDAwMDAwIiBmb250LWZhbWlseT0ic2Fucy1zZXJpZiIgZm9udC1zaXplPSIxNCIgbGVuZ3RoQWRqdXN0PSJzcGFjaW5nIiB0ZXh0TGVuZ3RoPSIxODkiIHg9IjIwIiB5PSI2NC4yMDMxIj4rZ2VuZXJhdGVSaXNrTm90aWZpY2F0aW9uKCk8L3RleHQ+PHRleHQgZmlsbD0iIzAwMDAwMCIgZm9udC1mYW1pbHk9InNhbnMtc2VyaWYiIGZvbnQtc2l6ZT0iMTQiIGxlbmd0aEFkanVzdD0ic3BhY2luZyIgdGV4dExlbmd0aD0iMTMzIiB4PSIyMCIgeT0iNzkuMTg3NSI+K2dlbmVyYXRlVGFza0xpc3QoKTwvdGV4dD48dGV4dCBmaWxsPSIjMDAwMDAwIiBmb250LWZhbWlseT0ic2Fucy1zZXJpZiIgZm9udC1zaXplPSIxNCIgbGVuZ3RoQWRqdXN0PSJzcGFjaW5nIiB0ZXh0TGVuZ3RoPSIxNjgiIHg9IjIwIiB5PSI5NC4xNzE5Ij4rbm90aWZ5VHJhaW5TdXNwZW5zaW9uKCk8L3RleHQ+PC9nPjwhLS1jbGFzcyBFbWVyZ2VuY3lUZWFtLS0+PGcgY2xhc3M9ImVudGl0eSIgZGF0YS1lbnRpdHk9IkVtZXJnZW5jeVRlYW0iIGRhdGEtc291cmNlLWxpbmU9IjIyIiBkYXRhLXVpZD0iZW50MDAwMyIgaWQ9ImVudGl0eV9FbWVyZ2VuY3lUZWFtIj48cmVjdCBmaWxsPSIjRkZGRkZGIiBoZWlnaHQ9IjExNS45MDYzIiByeD0iMi41IiByeT0iMi41IiBzdHlsZT0ic3Ryb2tlOiMwMDAwMDA7c3Ryb2tlLXdpZHRoOjAuNTsiIHdpZHRoPSIxODciIHg9IjIxIiB5PSIxNzUiLz48dGV4dCBmaWxsPSIjMDAwMDAwIiBmb250LWZhbWlseT0ic2Fucy1zZXJpZiIgZm9udC1zaXplPSIxNCIgbGVuZ3RoQWRqdXN0PSJzcGFjaW5nIiB0ZXh0TGVuZ3RoPSI5MSIgeD0iNjkiIHk9IjE5My4yMzQ0Ij5FbWVyZ2VuY3lUZWFtPC90ZXh0PjxsaW5lIHN0eWxlPSJzdHJva2U6IzAwMDAwMDtzdHJva2Utd2lkdGg6MC41OyIgeDE9IjIyIiB4Mj0iMjA3IiB5MT0iMTk5Ljk4NDQiIHkyPSIxOTkuOTg0NCIvPjx0ZXh0IGZpbGw9IiMwMDAwMDAiIGZvbnQtZmFtaWx5PSJzYW5zLXNlcmlmIiBmb250LXNpemU9IjE0IiBsZW5ndGhBZGp1c3Q9InNwYWNpbmciIHRleHRMZW5ndGg9IjEwNSIgeD0iMjciIHk9IjIxNy4yMTg4Ij4tdGVhbUlkOiBTdHJpbmc8L3RleHQ+PHRleHQgZmlsbD0iIzAwMDAwMCIgZm9udC1mYW1pbHk9InNhbnMtc2VyaWYiIGZvbnQtc2l6ZT0iMTQiIGxlbmd0aEFkanVzdD0ic3BhY2luZyIgdGV4dExlbmd0aD0iMTE5IiB4PSIyNyIgeT0iMjMyLjIwMzEiPi10ZWFtTmFtZTogU3RyaW5nPC90ZXh0PjxsaW5lIHN0eWxlPSJzdHJva2U6IzAwMDAwMDtzdHJva2Utd2lkdGg6MTtzdHJva2UtZGFzaGFycmF5OjEuMCwyLjA7IiB4MT0iMjIiIHgyPSIyMDciIHkxPSIyMzcuOTUzMSIgeTI9IjIzNy45NTMxIi8+PHRleHQgZmlsbD0iIzAwMDAwMCIgZm9udC1mYW1pbHk9InNhbnMtc2VyaWYiIGZvbnQtc2l6ZT0iMTQiIGxlbmd0aEFkanVzdD0ic3BhY2luZyIgdGV4dExlbmd0aD0iMTI2IiB4PSIyNyIgeT0iMjU1LjE4NzUiPityZWNlaXZlVGFzayh0YXNrKTwvdGV4dD48dGV4dCBmaWxsPSIjMDAwMDAwIiBmb250LWZhbWlseT0ic2Fucy1zZXJpZiIgZm9udC1zaXplPSIxNCIgbGVuZ3RoQWRqdXN0PSJzcGFjaW5nIiB0ZXh0TGVuZ3RoPSIxNDAiIHg9IjI3IiB5PSIyNzAuMTcxOSI+K2V4ZWN1dGVUYXNrKHRhc2tJZCk8L3RleHQ+PHRleHQgZmlsbD0iIzAwMDAwMCIgZm9udC1mYW1pbHk9InNhbnMtc2VyaWYiIGZvbnQtc2l6ZT0iMTQiIGxlbmd0aEFkanVzdD0ic3BhY2luZyIgdGV4dExlbmd0aD0iMTc1IiB4PSIyNyIgeT0iMjg1LjE1NjMiPityZXBvcnRDb21wbGV0aW9uKHRhc2tJZCk8L3RleHQ+PC9nPjwhLS1jbGFzcyBSZXZpZXdDb250cm9sbGVyLS0+PGcgY2xhc3M9ImVudGl0eSIgZGF0YS1lbnRpdHk9IlJldmlld0NvbnRyb2xsZXIiIGRhdGEtc291cmNlLWxpbmU9IjMyIiBkYXRhLXVpZD0iZW50MDAwNCIgaWQ9ImVudGl0eV9SZXZpZXdDb250cm9sbGVyIj48cmVjdCBmaWxsPSIjRkZGRkZGIiBoZWlnaHQ9IjQ3Ljk2ODgiIHJ4PSIyLjUiIHJ5PSIyLjUiIHN0eWxlPSJzdHJva2U6IzAwMDAwMDtzdHJva2Utd2lkdGg6MC41OyIgd2lkdGg9IjEzOCIgeD0iNDM3LjUiIHk9IjY0My41Ii8+PHRleHQgZmlsbD0iIzAwMDAwMCIgZm9udC1mYW1pbHk9InNhbnMtc2VyaWYiIGZvbnQtc2l6ZT0iMTQiIGxlbmd0aEFkanVzdD0ic3BhY2luZyIgdGV4dExlbmd0aD0iMTEyIiB4PSI0NTAuNSIgeT0iNjYxLjczNDQiPlJldmlld0NvbnRyb2xsZXI8L3RleHQ+PGxpbmUgc3R5bGU9InN0cm9rZTojMDAwMDAwO3N0cm9rZS13aWR0aDowLjU7IiB4MT0iNDM4LjUiIHgyPSI1NzQuNSIgeTE9IjY2OC40ODQ0IiB5Mj0iNjY4LjQ4NDQiLz48dGV4dCBmaWxsPSIjMDAwMDAwIiBmb250LWZhbWlseT0ic2Fucy1zZXJpZiIgZm9udC1zaXplPSIxNCIgbGVuZ3RoQWRqdXN0PSJzcGFjaW5nIiB0ZXh0TGVuZ3RoPSIxMjYiIHg9IjQ0My41IiB5PSI2ODUuNzE4OCI+K3N1Ym1pdEZvclJldmlldygpPC90ZXh0PjwvZz48IS0tY2xhc3MgRW1lcmdlbmN5VGFzay0tPjxnIGNsYXNzPSJlbnRpdHkiIGRhdGEtZW50aXR5PSJFbWVyZ2VuY3lUYXNrIiBkYXRhLXNvdXJjZS1saW5lPSIzNyIgZGF0YS11aWQ9ImVudDAwMDUiIGlkPSJlbnRpdHlfRW1lcmdlbmN5VGFzayI+PHJlY3QgZmlsbD0iI0ZGRkZGRiIgaGVpZ2h0PSIxNDUuODc1IiByeD0iMi41IiByeT0iMi41IiBzdHlsZT0ic3Ryb2tlOiMwMDAwMDA7c3Ryb2tlLXdpZHRoOjAuNTsiIHdpZHRoPSIxNTIiIHg9IjM4LjUiIHk9IjM2NiIvPjx0ZXh0IGZpbGw9IiMwMDAwMDAiIGZvbnQtZmFtaWx5PSJzYW5zLXNlcmlmIiBmb250LXNpemU9IjE0IiBsZW5ndGhBZGp1c3Q9InNwYWNpbmciIHRleHRMZW5ndGg9IjkxIiB4PSI2OSIgeT0iMzg0LjIzNDQiPkVtZXJnZW5jeVRhc2s8L3RleHQ+PGxpbmUgc3R5bGU9InN0cm9rZTojMDAwMDAwO3N0cm9rZS13aWR0aDowLjU7IiB4MT0iMzkuNSIgeDI9IjE4OS41IiB5MT0iMzkwLjk4NDQiIHkyPSIzOTAuOTg0NCIvPjx0ZXh0IGZpbGw9IiMwMDAwMDAiIGZvbnQtZmFtaWx5PSJzYW5zLXNlcmlmIiBmb250LXNpemU9IjE0IiBsZW5ndGhBZGp1c3Q9InNwYWNpbmciIHRleHRMZW5ndGg9IjEwNSIgeD0iNDQuNSIgeT0iNDA4LjIxODgiPi10YXNrSWQ6IFN0cmluZzwvdGV4dD48dGV4dCBmaWxsPSIjMDAwMDAwIiBmb250LWZhbWlseT0ic2Fucy1zZXJpZiIgZm9udC1zaXplPSIxNCIgbGVuZ3RoQWRqdXN0PSJzcGFjaW5nIiB0ZXh0TGVuZ3RoPSIxNDAiIHg9IjQ0LjUiIHk9IjQyMy4yMDMxIj4tZGVzY3JpcHRpb246IFN0cmluZzwvdGV4dD48dGV4dCBmaWxsPSIjMDAwMDAwIiBmb250LWZhbWlseT0ic2Fucy1zZXJpZiIgZm9udC1zaXplPSIxNCIgbGVuZ3RoQWRqdXN0PSJzcGFjaW5nIiB0ZXh0TGVuZ3RoPSI5OCIgeD0iNDQuNSIgeT0iNDM4LjE4NzUiPi1wcmlvcml0eTogaW50PC90ZXh0Pjx0ZXh0IGZpbGw9IiMwMDAwMDAiIGZvbnQtZmFtaWx5PSJzYW5zLXNlcmlmIiBmb250LXNpemU9IjE0IiBsZW5ndGhBZGp1c3Q9InNwYWNpbmciIHRleHRMZW5ndGg9IjEzMyIgeD0iNDQuNSIgeT0iNDUzLjE3MTkiPi1zdGF0dXM6IFRhc2tTdGF0dXM8L3RleHQ+PHRleHQgZmlsbD0iIzAwMDAwMCIgZm9udC1mYW1pbHk9InNhbnMtc2VyaWYiIGZvbnQtc2l6ZT0iMTQiIGxlbmd0aEFkanVzdD0ic3BhY2luZyIgdGV4dExlbmd0aD0iMTA1IiB4PSI0NC41IiB5PSI0NjguMTU2MyI+LWFzc2lnbmVkVGVhbSgpPC90ZXh0PjxsaW5lIHN0eWxlPSJzdHJva2U6IzAwMDAwMDtzdHJva2Utd2lkdGg6MTtzdHJva2UtZGFzaGFycmF5OjEuMCwyLjA7IiB4MT0iMzkuNSIgeDI9IjE4OS41IiB5MT0iNDczLjkwNjMiIHkyPSI0NzMuOTA2MyIvPjx0ZXh0IGZpbGw9IiMwMDAwMDAiIGZvbnQtZmFtaWx5PSJzYW5zLXNlcmlmIiBmb250LXNpemU9IjE0IiBsZW5ndGhBZGp1c3Q9InNwYWNpbmciIHRleHRMZW5ndGg9IjEwNSIgeD0iNDQuNSIgeT0iNDkxLjE0MDYiPithc3NpZ25Ub1RlYW0oKTwvdGV4dD48dGV4dCBmaWxsPSIjMDAwMDAwIiBmb250LWZhbWlseT0ic2Fucy1zZXJpZiIgZm9udC1zaXplPSIxNCIgbGVuZ3RoQWRqdXN0PSJzcGFjaW5nIiB0ZXh0TGVuZ3RoPSIxMDUiIHg9IjQ0LjUiIHk9IjUwNi4xMjUiPit1cGRhdGVTdGF0dXMoKTwvdGV4dD48L2c+PCEtLWNsYXNzIEVtZXJnZW5jeVJlcG9ydC0tPjxnIGNsYXNzPSJlbnRpdHkiIGRhdGEtZW50aXR5PSJFbWVyZ2VuY3lSZXBvcnQiIGRhdGEtc291cmNlLWxpbmU9IjQ5IiBkYXRhLXVpZD0iZW50MDAwNiIgaWQ9ImVudGl0eV9FbWVyZ2VuY3lSZXBvcnQiPjxyZWN0IGZpbGw9IiNGRkZGRkYiIGhlaWdodD0iMTYwLjg1OTQiIHJ4PSIyLjUiIHJ5PSIyLjUiIHN0eWxlPSJzdHJva2U6IzAwMDAwMDtzdHJva2Utd2lkdGg6MC41OyIgd2lkdGg9IjE1OSIgeD0iMzUiIHk9IjU4NyIvPjx0ZXh0IGZpbGw9IiMwMDAwMDAiIGZvbnQtZmFtaWx5PSJzYW5zLXNlcmlmIiBmb250LXNpemU9IjE0IiBsZW5ndGhBZGp1c3Q9InNwYWNpbmciIHRleHRMZW5ndGg9IjEwNSIgeD0iNjIiIHk9IjYwNS4yMzQ0Ij5FbWVyZ2VuY3lSZXBvcnQ8L3RleHQ+PGxpbmUgc3R5bGU9InN0cm9rZTojMDAwMDAwO3N0cm9rZS13aWR0aDowLjU7IiB4MT0iMzYiIHgyPSIxOTMiIHkxPSI2MTEuOTg0NCIgeTI9IjYxMS45ODQ0Ii8+PHRleHQgZmlsbD0iIzAwMDAwMCIgZm9udC1mYW1pbHk9InNhbnMtc2VyaWYiIGZvbnQtc2l6ZT0iMTQiIGxlbmd0aEFkanVzdD0ic3BhY2luZyIgdGV4dExlbmd0aD0iMTE5IiB4PSI0MSIgeT0iNjI5LjIxODgiPi1yZXBvcnRJZDogU3RyaW5nPC90ZXh0Pjx0ZXh0IGZpbGw9IiMwMDAwMDAiIGZvbnQtZmFtaWx5PSJzYW5zLXNlcmlmIiBmb250LXNpemU9IjE0IiBsZW5ndGhBZGp1c3Q9InNwYWNpbmciIHRleHRMZW5ndGg9IjEwNSIgeD0iNDEiIHk9IjY0NC4yMDMxIj4tdGFza0lkOiBTdHJpbmc8L3RleHQ+PHRleHQgZmlsbD0iIzAwMDAwMCIgZm9udC1mYW1pbHk9InNhbnMtc2VyaWYiIGZvbnQtc2l6ZT0iMTQiIGxlbmd0aEFkanVzdD0ic3BhY2luZyIgdGV4dExlbmd0aD0iMTA1IiB4PSI0MSIgeT0iNjU5LjE4NzUiPi10ZWFtSWQ6IFN0cmluZzwvdGV4dD48dGV4dCBmaWxsPSIjMDAwMDAwIiBmb250LWZhbWlseT0ic2Fucy1zZXJpZiIgZm9udC1zaXplPSIxNCIgbGVuZ3RoQWRqdXN0PSJzcGFjaW5nIiB0ZXh0TGVuZ3RoPSIxMDUiIHg9IjQxIiB5PSI2NzQuMTcxOSI+LXJlc3VsdDogU3RyaW5nPC90ZXh0Pjx0ZXh0IGZpbGw9IiMwMDAwMDAiIGZvbnQtZmFtaWx5PSJzYW5zLXNlcmlmIiBmb250LXNpemU9IjE0IiBsZW5ndGhBZGp1c3Q9InNwYWNpbmciIHRleHRMZW5ndGg9IjEwNSIgeD0iNDEiIHk9IjY4OS4xNTYzIj4tc3RhdHVzOiBTdHJpbmc8L3RleHQ+PGxpbmUgc3R5bGU9InN0cm9rZTojMDAwMDAwO3N0cm9rZS13aWR0aDoxO3N0cm9rZS1kYXNoYXJyYXk6MS4wLDIuMDsiIHgxPSIzNiIgeDI9IjE5MyIgeTE9IjY5NC45MDYzIiB5Mj0iNjk0LjkwNjMiLz48dGV4dCBmaWxsPSIjMDAwMDAwIiBmb250LWZhbWlseT0ic2Fucy1zZXJpZiIgZm9udC1zaXplPSIxNCIgbGVuZ3RoQWRqdXN0PSJzcGFjaW5nIiB0ZXh0TGVuZ3RoPSIxMDUiIHg9IjQxIiB5PSI3MTIuMTQwNiI+K3N1Ym1pdFJlcG9ydCgpPC90ZXh0Pjx0ZXh0IGZpbGw9IiMwMDAwMDAiIGZvbnQtZmFtaWx5PSJzYW5zLXNlcmlmIiBmb250LXNpemU9IjE0IiBsZW5ndGhBZGp1c3Q9InNwYWNpbmciIHRleHRMZW5ndGg9IjE0NyIgeD0iNDEiIHk9IjcyNy4xMjUiPit1cGRhdGVTdGF0dXMoc3RhdHVzKTwvdGV4dD48dGV4dCBmaWxsPSIjMDAwMDAwIiBmb250LWZhbWlseT0ic2Fucy1zZXJpZiIgZm9udC1zaXplPSIxNCIgbGVuZ3RoQWRqdXN0PSJzcGFjaW5nIiB0ZXh0TGVuZ3RoPSI2MyIgeD0iNDEiIHk9Ijc0Mi4xMDk0Ij4rcmVjb3JkKCk8L3RleHQ+PC9nPjwhLS1jbGFzcyBSaXNrTm90aWZpY2F0aW9uLS0+PGcgY2xhc3M9ImVudGl0eSIgZGF0YS1lbnRpdHk9IlJpc2tOb3RpZmljYXRpb24iIGRhdGEtc291cmNlLWxpbmU9IjYyIiBkYXRhLXVpZD0iZW50MDAwNyIgaWQ9ImVudGl0eV9SaXNrTm90aWZpY2F0aW9uIj48cmVjdCBmaWxsPSIjRkZGRkZGIiBoZWlnaHQ9IjE0NS44NzUiIHJ4PSIyLjUiIHJ5PSIyLjUiIHN0eWxlPSJzdHJva2U6IzAwMDAwMDtzdHJva2Utd2lkdGg6MC41OyIgd2lkdGg9IjE3MyIgeD0iMjI5IiB5PSI1OTQuNSIvPjx0ZXh0IGZpbGw9IiMwMDAwMDAiIGZvbnQtZmFtaWx5PSJzYW5zLXNlcmlmIiBmb250LXNpemU9IjE0IiBsZW5ndGhBZGp1c3Q9InNwYWNpbmciIHRleHRMZW5ndGg9IjExMiIgeD0iMjU5LjUiIHk9IjYxMi43MzQ0Ij5SaXNrTm90aWZpY2F0aW9uPC90ZXh0PjxsaW5lIHN0eWxlPSJzdHJva2U6IzAwMDAwMDtzdHJva2Utd2lkdGg6MC41OyIgeDE9IjIzMCIgeDI9IjQwMSIgeTE9IjYxOS40ODQ0IiB5Mj0iNjE5LjQ4NDQiLz48dGV4dCBmaWxsPSIjMDAwMDAwIiBmb250LWZhbWlseT0ic2Fucy1zZXJpZiIgZm9udC1zaXplPSIxNCIgbGVuZ3RoQWRqdXN0PSJzcGFjaW5nIiB0ZXh0TGVuZ3RoPSIxNjEiIHg9IjIzNSIgeT0iNjM2LjcxODgiPi1ub3RpZmljYXRpb25JZDogU3RyaW5nPC90ZXh0Pjx0ZXh0IGZpbGw9IiMwMDAwMDAiIGZvbnQtZmFtaWx5PSJzYW5zLXNlcmlmIiBmb250LXNpemU9IjE0IiBsZW5ndGhBZGp1c3Q9InNwYWNpbmciIHRleHRMZW5ndGg9IjEyNiIgeD0iMjM1IiB5PSI2NTEuNzAzMSI+LXJpc2tMZXZlbDogU3RyaW5nPC90ZXh0Pjx0ZXh0IGZpbGw9IiMwMDAwMDAiIGZvbnQtZmFtaWx5PSJzYW5zLXNlcmlmIiBmb250LXNpemU9IjE0IiBsZW5ndGhBZGp1c3Q9InNwYWNpbmciIHRleHRMZW5ndGg9IjE0MCIgeD0iMjM1IiB5PSI2NjYuNjg3NSI+LWRlc2NyaXB0aW9uOiBTdHJpbmc8L3RleHQ+PHRleHQgZmlsbD0iIzAwMDAwMCIgZm9udC1mYW1pbHk9InNhbnMtc2VyaWYiIGZvbnQtc2l6ZT0iMTQiIGxlbmd0aEFkanVzdD0ic3BhY2luZyIgdGV4dExlbmd0aD0iMTA1IiB4PSIyMzUiIHk9IjY4MS42NzE5Ij4tc3RhdHVzOiBTdHJpbmc8L3RleHQ+PGxpbmUgc3R5bGU9InN0cm9rZTojMDAwMDAwO3N0cm9rZS13aWR0aDoxO3N0cm9rZS1kYXNoYXJyYXk6MS4wLDIuMDsiIHgxPSIyMzAiIHgyPSI0MDEiIHkxPSI2ODcuNDIxOSIgeTI9IjY4Ny40MjE5Ii8+PHRleHQgZmlsbD0iIzAwMDAwMCIgZm9udC1mYW1pbHk9InNhbnMtc2VyaWYiIGZvbnQtc2l6ZT0iMTQiIGxlbmd0aEFkanVzdD0ic3BhY2luZyIgdGV4dExlbmd0aD0iMTI2IiB4PSIyMzUiIHk9IjcwNC42NTYzIj4rc3VibWl0Rm9yUmV2aWV3KCk8L3RleHQ+PHRleHQgZmlsbD0iIzAwMDAwMCIgZm9udC1mYW1pbHk9InNhbnMtc2VyaWYiIGZvbnQtc2l6ZT0iMTQiIGxlbmd0aEFkanVzdD0ic3BhY2luZyIgdGV4dExlbmd0aD0iMTA1IiB4PSIyMzUiIHk9IjcxOS42NDA2Ij4rdXBkYXRlU3RhdHVzKCk8L3RleHQ+PHRleHQgZmlsbD0iIzAwMDAwMCIgZm9udC1mYW1pbHk9InNhbnMtc2VyaWYiIGZvbnQtc2l6ZT0iMTQiIGxlbmd0aEFkanVzdD0ic3BhY2luZyIgdGV4dExlbmd0aD0iMTI2IiB4PSIyMzUiIHk9IjczNC42MjUiPitnZXRSZXZpZXdTdGF0dXMoKTwvdGV4dD48L2c+PCEtLWNsYXNzIFJhaWx3YXlBdXRob3JpdHktLT48ZyBjbGFzcz0iZW50aXR5IiBkYXRhLWVudGl0eT0iUmFpbHdheUF1dGhvcml0eSIgZGF0YS1zb3VyY2UtbGluZT0iNzQiIGRhdGEtdWlkPSJlbnQwMDA4IiBpZD0iZW50aXR5X1JhaWx3YXlBdXRob3JpdHkiPjxyZWN0IGZpbGw9IiNGRkZGRkYiIGhlaWdodD0iMTE1LjkwNjMiIHJ4PSIyLjUiIHJ5PSIyLjUiIHN0eWxlPSJzdHJva2U6IzAwMDAwMDtzdHJva2Utd2lkdGg6MC41OyIgd2lkdGg9IjI4NSIgeD0iODIiIHk9IjgyMyIvPjx0ZXh0IGZpbGw9IiMwMDAwMDAiIGZvbnQtZmFtaWx5PSJzYW5zLXNlcmlmIiBmb250LXNpemU9IjE0IiBsZW5ndGhBZGp1c3Q9InNwYWNpbmciIHRleHRMZW5ndGg9IjExMiIgeD0iMTY4LjUiIHk9Ijg0MS4yMzQ0Ij5SYWlsd2F5QXV0aG9yaXR5PC90ZXh0PjxsaW5lIHN0eWxlPSJzdHJva2U6IzAwMDAwMDtzdHJva2Utd2lkdGg6MC41OyIgeDE9IjgzIiB4Mj0iMzY2IiB5MT0iODQ3Ljk4NDQiIHkyPSI4NDcuOTg0NCIvPjx0ZXh0IGZpbGw9IiMwMDAwMDAiIGZvbnQtZmFtaWx5PSJzYW5zLXNlcmlmIiBmb250LXNpemU9IjE0IiBsZW5ndGhBZGp1c3Q9InNwYWNpbmciIHRleHRMZW5ndGg9IjE0MCIgeD0iODgiIHk9Ijg2NS4yMTg4Ij4tYXV0aG9yaXR5SWQ6IFN0cmluZzwvdGV4dD48dGV4dCBmaWxsPSIjMDAwMDAwIiBmb250LWZhbWlseT0ic2Fucy1zZXJpZiIgZm9udC1zaXplPSIxNCIgbGVuZ3RoQWRqdXN0PSJzcGFjaW5nIiB0ZXh0TGVuZ3RoPSIxMzMiIHg9Ijg4IiB5PSI4ODAuMjAzMSI+LWRlcGFydG1lbnQ6IFN0cmluZzwvdGV4dD48bGluZSBzdHlsZT0ic3Ryb2tlOiMwMDAwMDA7c3Ryb2tlLXdpZHRoOjE7c3Ryb2tlLWRhc2hhcnJheToxLjAsMi4wOyIgeDE9IjgzIiB4Mj0iMzY2IiB5MT0iODg1Ljk1MzEiIHkyPSI4ODUuOTUzMSIvPjx0ZXh0IGZpbGw9IiMwMDAwMDAiIGZvbnQtZmFtaWx5PSJzYW5zLXNlcmlmIiBmb250LXNpemU9IjE0IiBsZW5ndGhBZGp1c3Q9InNwYWNpbmciIHRleHRMZW5ndGg9IjI3MyIgeD0iODgiIHk9IjkwMy4xODc1Ij4rcmV2aWV3KG5vdGlmaWNhdGlvbjogUmlza05vdGlmaWNhdGlvbik8L3RleHQ+PHRleHQgZmlsbD0iIzAwMDAwMCIgZm9udC1mYW1pbHk9InNhbnMtc2VyaWYiIGZvbnQtc2l6ZT0iMTQiIGxlbmd0aEFkanVzdD0ic3BhY2luZyIgdGV4dExlbmd0aD0iMjI0IiB4PSI4OCIgeT0iOTE4LjE3MTkiPityZXZpZXcocmVwb3J0OiBFbWVyZ2VuY3lSZXBvcnQpPC90ZXh0Pjx0ZXh0IGZpbGw9IiMwMDAwMDAiIGZvbnQtZmFtaWx5PSJzYW5zLXNlcmlmIiBmb250LXNpemU9IjE0IiBsZW5ndGhBZGp1c3Q9InNwYWNpbmciIHRleHRMZW5ndGg9IjIwMyIgeD0iODgiIHk9IjkzMy4xNTYzIj4rcmVxdWVzdEhpZGRlbkludmVzdGlnYXRpb24oKTwvdGV4dD48L2c+PCEtLWNsYXNzIEF1ZGl0UmVjb3JkLS0+PGcgY2xhc3M9ImVudGl0eSIgZGF0YS1lbnRpdHk9IkF1ZGl0UmVjb3JkIiBkYXRhLXNvdXJjZS1saW5lPSI4NCIgZGF0YS11aWQ9ImVudDAwMDkiIGlkPSJlbnRpdHlfQXVkaXRSZWNvcmQiPjxyZWN0IGZpbGw9IiNGRkZGRkYiIGhlaWdodD0iMTMwLjg5MDYiIHJ4PSIyLjUiIHJ5PSIyLjUiIHN0eWxlPSJzdHJva2U6IzAwMDAwMDtzdHJva2Utd2lkdGg6MC41OyIgd2lkdGg9IjEyNCIgeD0iMTIxLjUiIHk9IjEwMTQiLz48dGV4dCBmaWxsPSIjMDAwMDAwIiBmb250LWZhbWlseT0ic2Fucy1zZXJpZiIgZm9udC1zaXplPSIxNCIgbGVuZ3RoQWRqdXN0PSJzcGFjaW5nIiB0ZXh0TGVuZ3RoPSI3NyIgeD0iMTQ1IiB5PSIxMDMyLjIzNDQiPkF1ZGl0UmVjb3JkPC90ZXh0PjxsaW5lIHN0eWxlPSJzdHJva2U6IzAwMDAwMDtzdHJva2Utd2lkdGg6MC41OyIgeDE9IjEyMi41IiB4Mj0iMjQ0LjUiIHkxPSIxMDM4Ljk4NDQiIHkyPSIxMDM4Ljk4NDQiLz48dGV4dCBmaWxsPSIjMDAwMDAwIiBmb250LWZhbWlseT0ic2Fucy1zZXJpZiIgZm9udC1zaXplPSIxNCIgbGVuZ3RoQWRqdXN0PSJzcGFjaW5nIiB0ZXh0TGVuZ3RoPSIxMTIiIHg9IjEyNy41IiB5PSIxMDU2LjIxODgiPi1hdWRpdElkOiBTdHJpbmc8L3RleHQ+PHRleHQgZmlsbD0iIzAwMDAwMCIgZm9udC1mYW1pbHk9InNhbnMtc2VyaWYiIGZvbnQtc2l6ZT0iMTQiIGxlbmd0aEFkanVzdD0ic3BhY2luZyIgdGV4dExlbmd0aD0iMTA1IiB4PSIxMjcuNSIgeT0iMTA3MS4yMDMxIj4tcmVzdWx0OiBTdHJpbmc8L3RleHQ+PHRleHQgZmlsbD0iIzAwMDAwMCIgZm9udC1mYW1pbHk9InNhbnMtc2VyaWYiIGZvbnQtc2l6ZT0iMTQiIGxlbmd0aEFkanVzdD0ic3BhY2luZyIgdGV4dExlbmd0aD0iMTEyIiB4PSIxMjcuNSIgeT0iMTA4Ni4xODc1Ij4tY29tbWVudDogU3RyaW5nPC90ZXh0PjxsaW5lIHN0eWxlPSJzdHJva2U6IzAwMDAwMDtzdHJva2Utd2lkdGg6MTtzdHJva2UtZGFzaGFycmF5OjEuMCwyLjA7IiB4MT0iMTIyLjUiIHgyPSIyNDQuNSIgeTE9IjEwOTEuOTM3NSIgeTI9IjEwOTEuOTM3NSIvPjx0ZXh0IGZpbGw9IiMwMDAwMDAiIGZvbnQtZmFtaWx5PSJzYW5zLXNlcmlmIiBmb250LXNpemU9IjE0IiBsZW5ndGhBZGp1c3Q9InNwYWNpbmciIHRleHRMZW5ndGg9IjYzIiB4PSIxMjcuNSIgeT0iMTEwOS4xNzE5Ij4rc3VibWl0KCk8L3RleHQ+PHRleHQgZmlsbD0iIzAwMDAwMCIgZm9udC1mYW1pbHk9InNhbnMtc2VyaWYiIGZvbnQtc2l6ZT0iMTQiIGxlbmd0aEFkanVzdD0ic3BhY2luZyIgdGV4dExlbmd0aD0iODQiIHg9IjEyNy41IiB5PSIxMTI0LjE1NjMiPitnZXRSZXN1bHQoKTwvdGV4dD48dGV4dCBmaWxsPSIjMDAwMDAwIiBmb250LWZhbWlseT0ic2Fucy1zZXJpZiIgZm9udC1zaXplPSIxNCIgbGVuZ3RoQWRqdXN0PSJzcGFjaW5nIiB0ZXh0TGVuZ3RoPSI2MyIgeD0iMTI3LjUiIHk9IjExMzkuMTQwNiI+K3JlY29yZCgpPC90ZXh0PjwvZz48IS0tY2xhc3MgUmV2aWV3YWJsZS0tPjxnIGNsYXNzPSJlbnRpdHkiIGRhdGEtZW50aXR5PSJSZXZpZXdhYmxlIiBkYXRhLXNvdXJjZS1saW5lPSI5NSIgZGF0YS11aWQ9ImVudDAwMTAiIGlkPSJlbnRpdHlfUmV2aWV3YWJsZSI+PHJlY3QgZmlsbD0iI0ZGRkZGRiIgaGVpZ2h0PSI3Ny45Mzc1IiByeD0iMi41IiByeT0iMi41IiBzdHlsZT0ic3Ryb2tlOiMwMDAwMDA7c3Ryb2tlLXdpZHRoOjAuNTsiIHdpZHRoPSIxMzgiIHg9IjQwMi41IiB5PSI4NDIiLz48dGV4dCBmaWxsPSIjMDAwMDAwIiBmb250LWZhbWlseT0ic2Fucy1zZXJpZiIgZm9udC1zaXplPSIxNCIgZm9udC1zdHlsZT0iaXRhbGljIiBsZW5ndGhBZGp1c3Q9InNwYWNpbmciIHRleHRMZW5ndGg9Ijc3IiB4PSI0MzMiIHk9Ijg2MC4yMzQ0Ij4mIzE3MTtpbnRlcmZhY2UmIzE4Nzs8L3RleHQ+PHRleHQgZmlsbD0iIzAwMDAwMCIgZm9udC1mYW1pbHk9InNhbnMtc2VyaWYiIGZvbnQtc2l6ZT0iMTQiIGZvbnQtc3R5bGU9Iml0YWxpYyIgbGVuZ3RoQWRqdXN0PSJzcGFjaW5nIiB0ZXh0TGVuZ3RoPSI3MCIgeD0iNDM2LjUiIHk9Ijg3NS4yMTg4Ij5SZXZpZXdhYmxlPC90ZXh0PjxsaW5lIHN0eWxlPSJzdHJva2U6IzAwMDAwMDtzdHJva2Utd2lkdGg6MC41OyIgeDE9IjQwMy41IiB4Mj0iNTM5LjUiIHkxPSI4ODEuOTY4OCIgeTI9Ijg4MS45Njg4Ii8+PHRleHQgZmlsbD0iIzAwMDAwMCIgZm9udC1mYW1pbHk9InNhbnMtc2VyaWYiIGZvbnQtc2l6ZT0iMTQiIGxlbmd0aEFkanVzdD0ic3BhY2luZyIgdGV4dExlbmd0aD0iMTI2IiB4PSI0MDguNSIgeT0iODk5LjIwMzEiPitzdWJtaXRGb3JSZXZpZXcoKTwvdGV4dD48dGV4dCBmaWxsPSIjMDAwMDAwIiBmb250LWZhbWlseT0ic2Fucy1zZXJpZiIgZm9udC1zaXplPSIxNCIgbGVuZ3RoQWRqdXN0PSJzcGFjaW5nIiB0ZXh0TGVuZ3RoPSIxMjYiIHg9IjQwOC41IiB5PSI5MTQuMTg3NSI+K2dldFJldmlld1N0YXR1cygpPC90ZXh0PjwvZz48IS0tY2xhc3MgU3RvcmFibGUtLT48ZyBjbGFzcz0iZW50aXR5IiBkYXRhLWVudGl0eT0iU3RvcmFibGUiIGRhdGEtc291cmNlLWxpbmU9IjEwMCIgZGF0YS11aWQ9ImVudDAwMTEiIGlkPSJlbnRpdHlfU3RvcmFibGUiPjxyZWN0IGZpbGw9IiNGRkZGRkYiIGhlaWdodD0iNjIuOTUzMSIgcng9IjIuNSIgcnk9IjIuNSIgc3R5bGU9InN0cm9rZTojMDAwMDAwO3N0cm9rZS13aWR0aDowLjU7IiB3aWR0aD0iODMiIHg9IjciIHk9IjEyMDYiLz48dGV4dCBmaWxsPSIjMDAwMDAwIiBmb250LWZhbWlseT0ic2Fucy1zZXJpZiIgZm9udC1zaXplPSIxNCIgZm9udC1zdHlsZT0iaXRhbGljIiBsZW5ndGhBZGp1c3Q9InNwYWNpbmciIHRleHRMZW5ndGg9Ijc3IiB4PSIxMCIgeT0iMTIyNC4yMzQ0Ij4mIzE3MTtpbnRlcmZhY2UmIzE4Nzs8L3RleHQ+PHRleHQgZmlsbD0iIzAwMDAwMCIgZm9udC1mYW1pbHk9InNhbnMtc2VyaWYiIGZvbnQtc2l6ZT0iMTQiIGZvbnQtc3R5bGU9Iml0YWxpYyIgbGVuZ3RoQWRqdXN0PSJzcGFjaW5nIiB0ZXh0TGVuZ3RoPSI1NiIgeD0iMjAuNSIgeT0iMTIzOS4yMTg4Ij5TdG9yYWJsZTwvdGV4dD48bGluZSBzdHlsZT0ic3Ryb2tlOiMwMDAwMDA7c3Ryb2tlLXdpZHRoOjAuNTsiIHgxPSI4IiB4Mj0iODkiIHkxPSIxMjQ1Ljk2ODgiIHkyPSIxMjQ1Ljk2ODgiLz48dGV4dCBmaWxsPSIjMDAwMDAwIiBmb250LWZhbWlseT0ic2Fucy1zZXJpZiIgZm9udC1zaXplPSIxNCIgbGVuZ3RoQWRqdXN0PSJzcGFjaW5nIiB0ZXh0TGVuZ3RoPSI2MyIgeD0iMTMiIHk9IjEyNjMuMjAzMSI+K3JlY29yZCgpPC90ZXh0PjwvZz48IS0tbGluayBFbWVyZ2VuY3lDb250cm9sbGVyIHRvIEVtZXJnZW5jeVRlYW0tLT48ZyBjbGFzcz0ibGluayIgZGF0YS1lbnRpdHktMT0iRW1lcmdlbmN5Q29udHJvbGxlciIgZGF0YS1lbnRpdHktMj0iRW1lcmdlbmN5VGVhbSIgZGF0YS1zb3VyY2UtbGluZT0iMTA1IiBkYXRhLXVpZD0ibG5rMTIiIGlkPSJsaW5rX0VtZXJnZW5jeUNvbnRyb2xsZXJfRW1lcmdlbmN5VGVhbSI+PHBhdGggY29kZUxpbmU9IjEwNSIgZD0iTTExNC41LDEwMC4yMSBDMTE0LjUsMTIyLjkxIDExNC41LDE1MC41NyAxMTQuNSwxNzQuNjgiIGZpbGw9Im5vbmUiIGlkPSJFbWVyZ2VuY3lDb250cm9sbGVyLUVtZXJnZW5jeVRlYW0iIHN0eWxlPSJzdHJva2U6IzAwMDAwMDtzdHJva2Utd2lkdGg6MTsiLz48dGV4dCBmaWxsPSIjMDAwMDAwIiBmb250LWZhbWlseT0ic2Fucy1zZXJpZiIgZm9udC1zaXplPSIxMyIgbGVuZ3RoQWRqdXN0PSJzcGFjaW5nIiB0ZXh0TGVuZ3RoPSI5MSIgeD0iMTE1LjUiIHk9IjE0My4yODkxIj5kaXNwYXRjaFRhc2soKTwvdGV4dD48L2c+PCEtLWxpbmsgRW1lcmdlbmN5VGVhbSB0byBFbWVyZ2VuY3lUYXNrLS0+PGcgY2xhc3M9ImxpbmsiIGRhdGEtZW50aXR5LTE9IkVtZXJnZW5jeVRlYW0iIGRhdGEtZW50aXR5LTI9IkVtZXJnZW5jeVRhc2siIGRhdGEtc291cmNlLWxpbmU9IjEwNiIgZGF0YS11aWQ9ImxuazEzIiBpZD0ibGlua19FbWVyZ2VuY3lUZWFtX0VtZXJnZW5jeVRhc2siPjxwYXRoIGNvZGVMaW5lPSIxMDYiIGQ9Ik0xMTQuNSwyOTEuMSBDMTE0LjUsMzE0LjMyIDExNC41LDM0MS40MiAxMTQuNSwzNjUuOTciIGZpbGw9Im5vbmUiIGlkPSJFbWVyZ2VuY3lUZWFtLUVtZXJnZW5jeVRhc2siIHN0eWxlPSJzdHJva2U6IzAwMDAwMDtzdHJva2Utd2lkdGg6MTsiLz48cG9seWdvbiBmaWxsPSIjMDAwMDAwIiBwb2ludHM9IjExOS41LDMzMy45NTcsMTIyLjQzODksMzI0LjkxMTksMTE2LjU2MTEsMzI0LjkxMTksMTE5LjUsMzMzLjk1NyIgc3R5bGU9InN0cm9rZTojMDAwMDAwO3N0cm9rZS13aWR0aDoxOyIvPjx0ZXh0IGZpbGw9IiMwMDAwMDAiIGZvbnQtZmFtaWx5PSJzYW5zLXNlcmlmIiBmb250LXNpemU9IjEzIiBsZW5ndGhBZGp1c3Q9InNwYWNpbmciIHRleHRMZW5ndGg9IjUyIiB4PSIxMjguNSIgeT0iMzM0LjI4OTEiPmV4ZWN1dGVzPC90ZXh0PjwvZz48IS0tbGluayBFbWVyZ2VuY3lUYXNrIHRvIEVtZXJnZW5jeVJlcG9ydC0tPjxnIGNsYXNzPSJsaW5rIiBkYXRhLWVudGl0eS0xPSJFbWVyZ2VuY3lUYXNrIiBkYXRhLWVudGl0eS0yPSJFbWVyZ2VuY3lSZXBvcnQiIGRhdGEtc291cmNlLWxpbmU9IjEwNyIgZGF0YS11aWQ9ImxuazE0IiBpZD0ibGlua19FbWVyZ2VuY3lUYXNrX0VtZXJnZW5jeVJlcG9ydCI+PHBhdGggY29kZUxpbmU9IjEwNyIgZD0iTTExNC41LDUxMi4yOSBDMTE0LjUsNTM1Ljk4IDExNC41LDU2Mi40NCAxMTQuNSw1ODYuNjYiIGZpbGw9Im5vbmUiIGlkPSJFbWVyZ2VuY3lUYXNrLUVtZXJnZW5jeVJlcG9ydCIgc3R5bGU9InN0cm9rZTojMDAwMDAwO3N0cm9rZS13aWR0aDoxOyIvPjxwb2x5Z29uIGZpbGw9IiMwMDAwMDAiIHBvaW50cz0iMTE5LjUsNTU0Ljk1NywxMjIuNDM4OSw1NDUuOTExOSwxMTYuNTYxMSw1NDUuOTExOSwxMTkuNSw1NTQuOTU3IiBzdHlsZT0ic3Ryb2tlOiMwMDAwMDA7c3Ryb2tlLXdpZHRoOjE7Ii8+PHRleHQgZmlsbD0iIzAwMDAwMCIgZm9udC1mYW1pbHk9InNhbnMtc2VyaWYiIGZvbnQtc2l6ZT0iMTMiIGxlbmd0aEFkanVzdD0ic3BhY2luZyIgdGV4dExlbmd0aD0iNTguNSIgeD0iMTI4LjUiIHk9IjU1NS4yODkxIj5nZW5lcmF0ZXM8L3RleHQ+PC9nPjwhLS1saW5rIFJpc2tOb3RpZmljYXRpb24gdG8gUmV2aWV3YWJsZS0tPjxnIGNsYXNzPSJsaW5rIiBkYXRhLWVudGl0eS0xPSJSaXNrTm90aWZpY2F0aW9uIiBkYXRhLWVudGl0eS0yPSJSZXZpZXdhYmxlIiBkYXRhLXNvdXJjZS1saW5lPSIxMDkiIGRhdGEtdWlkPSJsbmsxNSIgaWQ9ImxpbmtfUmlza05vdGlmaWNhdGlvbl9SZXZpZXdhYmxlIj48cGF0aCBjb2RlTGluZT0iMTA5IiBkPSJNMzY4Ljc1LDc0MC42OSBDMzkzLjgyLDc3NC42OCA0MTIuMDA4Miw3OTkuMzMyMSA0MzIuNzQ4Miw4MjcuNDYyMSIgZmlsbD0ibm9uZSIgaWQ9IlJpc2tOb3RpZmljYXRpb24tdG8tUmV2aWV3YWJsZSIgc3R5bGU9InN0cm9rZTojMDAwMDAwO3N0cm9rZS13aWR0aDoxO3N0cm9rZS1kYXNoYXJyYXk6Ny4wLDcuMDsiLz48cG9seWdvbiBmaWxsPSJub25lIiBwb2ludHM9IjQ0My40Myw4NDEuOTUsNDM3LjU3NzUsODIzLjkwMTUsNDI3LjkxODksODMxLjAyMjcsNDQzLjQzLDg0MS45NSIgc3R5bGU9InN0cm9rZTojMDAwMDAwO3N0cm9rZS13aWR0aDoxOyIvPjwvZz48IS0tbGluayBFbWVyZ2VuY3lSZXBvcnQgdG8gUmV2aWV3YWJsZS0tPjxnIGNsYXNzPSJsaW5rIiBkYXRhLWVudGl0eS0xPSJFbWVyZ2VuY3lSZXBvcnQiIGRhdGEtZW50aXR5LTI9IlJldmlld2FibGUiIGRhdGEtc291cmNlLWxpbmU9IjExMCIgZGF0YS11aWQ9ImxuazE2IiBpZD0ibGlua19FbWVyZ2VuY3lSZXBvcnRfUmV2aWV3YWJsZSI+PHBhdGggY29kZUxpbmU9IjExMCIgZD0iTTE5NC4wMyw3MzMuOTcgQzE5OS45Myw3MzguNzMgMjA1LjgsNzQzLjQ1IDIxMS41LDc0OCBDMjM3LjAxLDc2OC4zNCAyNDAuMjMsNzc4LjU5IDI2OS41LDc5MyBDMzE2Ljg5LDgxNi4zMyAzMzYuMjIsODAxLjU4IDM4NC41LDgyMyBDMzk2LjIyLDgyOC4yIDM5Mi44OSw4MjUuMzIxOCA0MDMuOTgsODMyLjI5MTgiIGZpbGw9Im5vbmUiIGlkPSJFbWVyZ2VuY3lSZXBvcnQtdG8tUmV2aWV3YWJsZSIgc3R5bGU9InN0cm9rZTojMDAwMDAwO3N0cm9rZS13aWR0aDoxO3N0cm9rZS1kYXNoYXJyYXk6Ny4wLDcuMDsiLz48cG9seWdvbiBmaWxsPSJub25lIiBwb2ludHM9IjQxOS4yMiw4NDEuODcsNDA3LjE3MjgsODI3LjIxMTgsNDAwLjc4NzMsODM3LjM3MTgsNDE5LjIyLDg0MS44NyIgc3R5bGU9InN0cm9rZTojMDAwMDAwO3N0cm9rZS13aWR0aDoxOyIvPjwvZz48IS0tbGluayBFbWVyZ2VuY3lSZXBvcnQgdG8gU3RvcmFibGUtLT48ZyBjbGFzcz0ibGluayIgZGF0YS1lbnRpdHktMT0iRW1lcmdlbmN5UmVwb3J0IiBkYXRhLWVudGl0eS0yPSJTdG9yYWJsZSIgZGF0YS1zb3VyY2UtbGluZT0iMTExIiBkYXRhLXVpZD0ibG5rMTciIGlkPSJsaW5rX0VtZXJnZW5jeVJlcG9ydF9TdG9yYWJsZSI+PHBhdGggY29kZUxpbmU9IjExMSIgZD0iTTg0LjE2LDc0OC4wMyBDNzYuMzUsNzcxLjggNjguOTEsNzk4LjE2IDY0LjUsODIzIEMzOS40LDk2NC4yOSA0Mi45MTk2LDExMTguODU4MyA0Ni4wMjk2LDExODcuODY4MyIgZmlsbD0ibm9uZSIgaWQ9IkVtZXJnZW5jeVJlcG9ydC10by1TdG9yYWJsZSIgc3R5bGU9InN0cm9rZTojMDAwMDAwO3N0cm9rZS13aWR0aDoxO3N0cm9rZS1kYXNoYXJyYXk6Ny4wLDcuMDsiLz48cG9seWdvbiBmaWxsPSJub25lIiBwb2ludHM9IjQ2Ljg0LDEyMDUuODUsNTIuMDIzNiwxMTg3LjU5ODEsNDAuMDM1NywxMTg4LjEzODQsNDYuODQsMTIwNS44NSIgc3R5bGU9InN0cm9rZTojMDAwMDAwO3N0cm9rZS13aWR0aDoxOyIvPjwvZz48IS0tbGluayBBdWRpdFJlY29yZCB0byBTdG9yYWJsZS0tPjxnIGNsYXNzPSJsaW5rIiBkYXRhLWVudGl0eS0xPSJBdWRpdFJlY29yZCIgZGF0YS1lbnRpdHktMj0iU3RvcmFibGUiIGRhdGEtc291cmNlLWxpbmU9IjExMiIgZGF0YS11aWQ9ImxuazE4IiBpZD0ibGlua19BdWRpdFJlY29yZF9TdG9yYWJsZSI+PHBhdGggY29kZUxpbmU9IjExMiIgZD0iTTEyNy40MiwxMTQ1LjMgQzEwOS4zMSwxMTY2LjIzIDEwMS44NDcsMTE3NC44NDc1IDg2Ljg5NywxMTkyLjEyNzUiIGZpbGw9Im5vbmUiIGlkPSJBdWRpdFJlY29yZC10by1TdG9yYWJsZSIgc3R5bGU9InN0cm9rZTojMDAwMDAwO3N0cm9rZS13aWR0aDoxO3N0cm9rZS1kYXNoYXJyYXk6Ny4wLDcuMDsiLz48cG9seWdvbiBmaWxsPSJub25lIiBwb2ludHM9Ijc1LjEyLDEyMDUuNzQsOTEuNDM0NiwxMTk2LjA1MzEsODIuMzU5NSwxMTg4LjIwMTgsNzUuMTIsMTIwNS43NCIgc3R5bGU9InN0cm9rZTojMDAwMDAwO3N0cm9rZS13aWR0aDoxOyIvPjwvZz48IS0tbGluayBSaXNrTm90aWZpY2F0aW9uIHRvIFJhaWx3YXlBdXRob3JpdHktLT48ZyBjbGFzcz0ibGluayIgZGF0YS1lbnRpdHktMT0iUmlza05vdGlmaWNhdGlvbiIgZGF0YS1lbnRpdHktMj0iUmFpbHdheUF1dGhvcml0eSIgZGF0YS1zb3VyY2UtbGluZT0iMTE0IiBkYXRhLXVpZD0ibG5rMTkiIGlkPSJsaW5rX1Jpc2tOb3RpZmljYXRpb25fUmFpbHdheUF1dGhvcml0eSI+PHBhdGggY29kZUxpbmU9IjExNCIgZD0iTTI4NC40NCw3NDAuNjkgQzI3Mi45LDc2Ny41IDI1OS45OSw3OTcuNTEgMjQ5LjExLDgyMi44IiBmaWxsPSJub25lIiBpZD0iUmlza05vdGlmaWNhdGlvbi1SYWlsd2F5QXV0aG9yaXR5IiBzdHlsZT0ic3Ryb2tlOiMwMDAwMDA7c3Ryb2tlLXdpZHRoOjE7Ii8+PHBvbHlnb24gZmlsbD0iIzAwMDAwMCIgcG9pbnRzPSIyNzAuNTIzOCw3OTAuNTQ5OSwyNzYuNzk4NCw3ODMuNDAyOSwyNzEuMzk5Miw3ODEuMDc5NywyNzAuNTIzOCw3OTAuNTQ5OSIgc3R5bGU9InN0cm9rZTojMDAwMDAwO3N0cm9rZS13aWR0aDoxOyIvPjx0ZXh0IGZpbGw9IiMwMDAwMDAiIGZvbnQtZmFtaWx5PSJzYW5zLXNlcmlmIiBmb250LXNpemU9IjEzIiBsZW5ndGhBZGp1c3Q9InNwYWNpbmciIHRleHRMZW5ndGg9IjcxLjUiIHg9IjI4MS41IiB5PSI3OTEuMjg5MSI+cmV2aWV3ZWQgYnk8L3RleHQ+PC9nPjwhLS1saW5rIEVtZXJnZW5jeVJlcG9ydCB0byBSYWlsd2F5QXV0aG9yaXR5LS0+PGcgY2xhc3M9ImxpbmsiIGRhdGEtZW50aXR5LTE9IkVtZXJnZW5jeVJlcG9ydCIgZGF0YS1lbnRpdHktMj0iUmFpbHdheUF1dGhvcml0eSIgZGF0YS1zb3VyY2UtbGluZT0iMTE1IiBkYXRhLXVpZD0ibG5rMjAiIGlkPSJsaW5rX0VtZXJnZW5jeVJlcG9ydF9SYWlsd2F5QXV0aG9yaXR5Ij48cGF0aCBjb2RlTGluZT0iMTE1IiBkPSJNMTIwLjMyLDc0OC4zIEMxMjMuNTMsNzYzLjcxIDEyOC4zNCw3NzkuMzEgMTM1LjUsNzkzIEMxNDEuMDEsODAzLjUzIDE0OC4yNiw4MTMuNTUgMTU2LjI1LDgyMi44IiBmaWxsPSJub25lIiBpZD0iRW1lcmdlbmN5UmVwb3J0LVJhaWx3YXlBdXRob3JpdHkiIHN0eWxlPSJzdHJva2U6IzAwMDAwMDtzdHJva2Utd2lkdGg6MTsiLz48cG9seWdvbiBmaWxsPSIjMDAwMDAwIiBwb2ludHM9IjE0Mi42NzIsNzkwLjQ2MDYsMTQxLjM5LDc4MS4wMzY5LDEzNi4wOTU3LDc4My41OTAyLDE0Mi42NzIsNzkwLjQ2MDYiIHN0eWxlPSJzdHJva2U6IzAwMDAwMDtzdHJva2Utd2lkdGg6MTsiLz48dGV4dCBmaWxsPSIjMDAwMDAwIiBmb250LWZhbWlseT0ic2Fucy1zZXJpZiIgZm9udC1zaXplPSIxMyIgbGVuZ3RoQWRqdXN0PSJzcGFjaW5nIiB0ZXh0TGVuZ3RoPSI3MS41IiB4PSIxNDkuNSIgeT0iNzkxLjI4OTEiPnJldmlld2VkIGJ5PC90ZXh0PjwvZz48IS0tbGluayBSYWlsd2F5QXV0aG9yaXR5IHRvIEF1ZGl0UmVjb3JkLS0+PGcgY2xhc3M9ImxpbmsiIGRhdGEtZW50aXR5LTE9IlJhaWx3YXlBdXRob3JpdHkiIGRhdGEtZW50aXR5LTI9IkF1ZGl0UmVjb3JkIiBkYXRhLXNvdXJjZS1saW5lPSIxMTYiIGRhdGEtdWlkPSJsbmsyMSIgaWQ9ImxpbmtfUmFpbHdheUF1dGhvcml0eV9BdWRpdFJlY29yZCI+PHBhdGggY29kZUxpbmU9IjExNiIgZD0iTTIxMi41OSw5MzkuMSBDMjA3LjcyLDk2Mi40NCAyMDIuMDYsOTg5LjU3IDE5Ny4wMywxMDEzLjY1IiBmaWxsPSJub25lIiBpZD0iUmFpbHdheUF1dGhvcml0eS1BdWRpdFJlY29yZCIgc3R5bGU9InN0cm9rZTojMDAwMDAwO3N0cm9rZS13aWR0aDoxOyIvPjxwb2x5Z29uIGZpbGw9IiMwMDAwMDAiIHBvaW50cz0iMjA5LjQ3ODQsOTgxLjg1MTYsMjE0LjIwMzQsOTczLjU5NzcsMjA4LjQ0OTUsOTcyLjM5NjgsMjA5LjQ3ODQsOTgxLjg1MTYiIHN0eWxlPSJzdHJva2U6IzAwMDAwMDtzdHJva2Utd2lkdGg6MTsiLz48dGV4dCBmaWxsPSIjMDAwMDAwIiBmb250LWZhbWlseT0ic2Fucy1zZXJpZiIgZm9udC1zaXplPSIxMyIgbGVuZ3RoQWRqdXN0PSJzcGFjaW5nIiB0ZXh0TGVuZ3RoPSI0NS41IiB4PSIyMTkuNSIgeT0iOTgyLjI4OTEiPmNyZWF0ZXM8L3RleHQ+PC9nPjwhLS1saW5rIFJldmlld0NvbnRyb2xsZXIgdG8gUmV2aWV3YWJsZS0tPjxnIGNsYXNzPSJsaW5rIiBkYXRhLWVudGl0eS0xPSJSZXZpZXdDb250cm9sbGVyIiBkYXRhLWVudGl0eS0yPSJSZXZpZXdhYmxlIiBkYXRhLXNvdXJjZS1saW5lPSIxMTciIGRhdGEtdWlkPSJsbmsyMiIgaWQ9ImxpbmtfUmV2aWV3Q29udHJvbGxlcl9SZXZpZXdhYmxlIj48cGF0aCBjb2RlTGluZT0iMTE3IiBkPSJNNTAyLjY5LDY5MS41NCBDNDk2LjcyLDcyNy42MiA0ODUuMDksNzk3Ljg1IDQ3Ny44NSw4NDEuNjQiIGZpbGw9Im5vbmUiIGlkPSJSZXZpZXdDb250cm9sbGVyLVJldmlld2FibGUiIHN0eWxlPSJzdHJva2U6IzAwMDAwMDtzdHJva2Utd2lkdGg6MTsiLz48cG9seWdvbiBmaWxsPSIjMDAwMDAwIiBwb2ludHM9IjQ5MS42ODM3LDc5MC44ODk5LDQ5Ni4wNTk5LDc4Mi40NDYxLDQ5MC4yNjA5LDc4MS40ODY0LDQ5MS42ODM3LDc5MC44ODk5IiBzdHlsZT0ic3Ryb2tlOiMwMDAwMDA7c3Ryb2tlLXdpZHRoOjE7Ii8+PHRleHQgZmlsbD0iIzAwMDAwMCIgZm9udC1mYW1pbHk9InNhbnMtc2VyaWYiIGZvbnQtc2l6ZT0iMTMiIGxlbmd0aEFkanVzdD0ic3BhY2luZyIgdGV4dExlbmd0aD0iNDUuNSIgeD0iNTAxLjUiIHk9Ijc5MS4yODkxIj5tYW5hZ2VzPC90ZXh0PjwvZz48IS0tU1JDPVtaTExEUnppbTNCdHhMbVl6RDQ3SE82VVoyRDA1Nm5RV3cyNzlTSFQ1UFhDWWprSDlUMzlsd3QtVkZjbjdfaVpNSW8wX2FZN1Y4cU5UaW90TEVKMDNIMldGOVo0ZGIyTk5sNjBZdnlRbXRtYlpkeGF1N1JJZ1BCUElrVEJpU2FHMllwemhoSXUxc2tWTW54YWdkTzZFaVZWWE5wdUpRVG5OMTZrWHYxUF8wVmlLa0hXMjNPaGc0YlJKUU8tTzBIRWVIVHdTZUlZZlBXTkdLTUtjWGp1R1NlaWF6c29iajhySGFoSkFTejJYWllHR181QTBGZTBLelVmZ1R3R1Y2QXo4Uk9iaHNlMGZiSkdtY3RsU1VlRmMxMWlxZnJUNS04UTI0b2V2Q0UtdUVSc1dlR1FNcGhGVVFPdm9NdmFJZjBhWHh3eDA3UkpnM0FsbzViVkY4b0R4TjZVZnhQWXNoVWdXTHJ2MDEydU1GZnE2ME5ac0hTcDhfZUdZdTJVOFlneGVFZml0dGdOSWo1OTVjT0VkcVhmelRIaXU4cm53ekdMZTk5Y2Z6V05JTHdNM2xRRGRfLXE2Rk1UZndGY0tGTmVQNkE2blQxTnJ5NUFacWFYcm9iMklIbW5uZ2FwZ0NzdHpzU0NzNW51YVA0djV0dVQ2ZE8zbEw4U19pQWhDUkREMnhBbVp4Y0lQaGhvblhUZzNWaUZjWjBiRGo1MjNnTkJnR0lzUE9LLTNrWTduTERLWGhrc2VpNVVuOUhBRlFSLUZXbmJrLUNXODZqUGg4cnhXM0ZjN0VsTGxBbDZXSkZHV3QyT0FCbHRFRjVWc2toaUh3QkZYYzV6dVZKSzZEaHB6N2VzTnRKYktXQUlmLSAtRmhZZUw4SHNoRE96U20wLWJtR2JnVjduS08tZVBQMWQ4anBfUUNYdFBoRDhtb3g4LVFIcFEtWm5xSFlfbl9WZUdnZmFhNXJNRGJOVW5pUWNBc3c3UTFrci1XdHhXMGF0SDdUbFZxcjdxaWJ6emJRMTNWdnQxZFJuUXhWanhTMlpTeFVwbDliZkprS2hHVkpPOS13SGw4bFJCY1lBTW5TYm9HWmF1Smp6aVlIa3YxYTIyeVBwQnIyWm0tM2pQbW9aOHE5SVRuejBqcWRsSkRGTi10cno5c3RuZ3NKRmdjc0JWUDk2ZHRTWlp0UDdHcDV1aV9vcVpSUDFaXzhOaWhOMThGTHp5b3Bjb0I3VHNpajFieG9EWS1aa2Fyc0p1SUN0QW1HTjVUQUhDUTZacjYzdXZCUzFzcWIxTFN5ZURwX0dpMF0tLT48L2c+PC9zdmc+;" parent="1" vertex="1">
            <mxGeometry x="-471" y="1612" width="582" height="1275" as="geometry" />
          </mxCell>
        </UserObject>
        <mxCell id="xiAdM_oJinIrioVPchU1-88" style="rounded=0;orthogonalLoop=1;jettySize=auto;html=1;dashed=1;endArrow=block;endFill=0;" parent="1" source="xiAdM_oJinIrioVPchU1-86" target="xiAdM_oJinIrioVPchU1-33" edge="1">
          <mxGeometry relative="1" as="geometry" />
        </mxCell>
        <mxCell id="xiAdM_oJinIrioVPchU1-86" value="Storable" style="swimlane;fontStyle=1;align=center;verticalAlign=top;childLayout=stackLayout;horizontal=1;startSize=27;horizontalStack=0;resizeParent=1;resizeParentMax=0;resizeLast=0;collapsible=1;marginBottom=0;whiteSpace=wrap;html=1;" parent="1" vertex="1">
          <mxGeometry x="-510" y="-24" width="200" height="35" as="geometry">
            <mxRectangle x="584" y="500" width="105" height="26" as="alternateBounds" />
          </mxGeometry>
        </mxCell>
        <mxCell id="xiAdM_oJinIrioVPchU1-87" value="" style="line;strokeWidth=1;fillColor=none;align=left;verticalAlign=middle;spacingTop=-1;spacingLeft=3;spacingRight=3;rotatable=0;labelPosition=right;points=[];portConstraint=eastwest;strokeColor=inherit;" parent="xiAdM_oJinIrioVPchU1-86" vertex="1">
          <mxGeometry y="27" width="200" height="8" as="geometry" />
        </mxCell>
        <mxCell id="xiAdM_oJinIrioVPchU1-93" value="0..*" style="edgeLabel;html=1;align=center;verticalAlign=middle;resizable=0;points=[];" parent="1" vertex="1" connectable="0">
          <mxGeometry x="361" y="55" as="geometry">
            <mxPoint x="3" y="1" as="offset" />
          </mxGeometry>
        </mxCell>
        <mxCell id="xiAdM_oJinIrioVPchU1-94" value="0..*" style="edgeLabel;html=1;align=center;verticalAlign=middle;resizable=0;points=[];" parent="1" vertex="1" connectable="0">
          <mxGeometry x="-2" y="-326" as="geometry" />
        </mxCell>
        <mxCell id="xiAdM_oJinIrioVPchU1-95" value="1..*" style="edgeLabel;html=1;align=center;verticalAlign=middle;resizable=0;points=[];" parent="1" vertex="1" connectable="0">
          <mxGeometry x="-100" y="-107" as="geometry">
            <mxPoint as="offset" />
          </mxGeometry>
        </mxCell>
      </root>
    </mxGraphModel>
  </diagram>
</mxfile>
